<svg xmlns="http://www.w3.org/2000/svg"><style>:root svg:not(:target){display:none}</style><svg viewBox="-74.4 -120.902 644.8 725.41" id="github-logo"><path d="M165.9 389.4c0 2-2.3 3.6-5.2 3.6-3.3.3-5.6-1.3-5.6-3.6 0-2 2.3-3.6 5.2-3.6 3-.3 5.6 1.3 5.6 3.6zm-31.1-4.5c-.7 2 1.3 4.3 4.3 4.9 2.6 1 5.6 0 6.2-2 .6-2-1.3-4.3-4.3-5.2-2.6-.7-5.5.3-6.2 2.3zm44.2-1.7c-2.9.7-4.9 2.6-4.6 4.9.3 2 2.9 3.3 5.9 2.6 2.9-.7 4.9-2.6 4.6-4.6-.3-1.9-3-3.2-5.9-2.9zm65.8-383.2c-138.7 0-244.8 105.3-244.8 244 0 110.9 69.8 205.8 169.5 239.2 12.8 2.3 17.3-5.6 17.3-12.1 0-6.2-.3-40.4-.3-61.4 0 0-70 15-84.7-29.8 0 0-11.4-29.1-27.8-36.6 0 0-22.9-15.7 1.6-15.4 0 0 24.9 2 38.6 25.8 21.9 38.6 58.6 27.5 72.9 20.9 2.3-16 8.8-27.1 16-33.7-55.9-6.2-112.3-14.3-112.3-110.5 0-27.5 7.6-41.3 23.6-58.9-2.6-6.5-11.1-33.3 2.6-67.9 20.9-6.5 69 27 69 27 20-5.6 41.5-8.5 62.8-8.5 21.3 0 42.8 2.9 62.8 8.5 0 0 48.1-33.6 69-27 13.7 34.7 5.2 61.4 2.6 67.9 16 17.7 25.8 31.5 25.8 58.9 0 96.5-58.9 104.2-114.8 110.5 9.2 7.9 17 22.9 17 46.4 0 33.7-.3 75.4-.3 83.6 0 6.5 4.6 14.4 17.3 12.1 100-33.2 167.8-128.1 167.8-239 0-138.7-112.5-244-251.2-244zm-147.6 344.9c-1.3 1-1 3.3.7 5.2 1.6 1.6 3.9 2.3 5.2 1 1.3-1 1-3.3-.7-5.2-1.6-1.6-3.9-2.3-5.2-1zm-10.8-8.1c-.7 1.3.3 2.9 2.3 3.9 1.6 1 3.6.7 4.3-.7.7-1.3-.3-2.9-2.3-3.9-2-.6-3.6-.3-4.3.7zm32.4 35.6c-1.6 1.3-1 4.3 1.3 6.2 2.3 2.3 5.2 2.6 6.5 1 1.3-1.3.7-4.3-1.3-6.2-2.2-2.3-5.2-2.6-6.5-1zm-11.4-14.7c-1.6 1-1.6 3.6 0 5.9 1.6 2.3 4.3 3.3 5.6 2.3 1.6-1.3 1.6-3.9 0-6.2-1.4-2.3-4-3.3-5.6-2z"></path></svg><svg viewBox="0 0 36 36" fill="none" id="icon-adaptive"><rect width="36" height="36" rx="8.094" fill="#1BFF07"></rect><path d="M18.13 27.96c-1.82 0-3.44-1.67-4.46-4.53-.07-.22.04-.48.26-.54a.4.4 0 0 1 .54.25c.88 2.48 2.25 3.96 3.66 3.96 1.02 0 2.03-.76 2.85-2.13.05-.1.15-.17.25-.2.11-.02.22 0 .32.06a.4.4 0 0 1 .18.26.4.4 0 0 1-.04.32c-.98 1.64-2.24 2.55-3.56 2.55Zm4.25-4.76-.12-.02c-.23-.08-.33-.32-.29-.55.5-1.55.74-3.37.74-5.23 0-4.28-1.35-8.07-3.29-9.3-.27.4-.75.72-1.3.72-.82 0-1.5-.7-1.5-1.55 0-.85.68-1.54 1.5-1.54.84 0 1.53.68 1.54 1.52 2.3 1.26 3.9 5.38 3.9 10.15 0 1.94-.27 3.84-.78 5.5a.42.42 0 0 1-.4.3Zm-4.25-16.62a.68.68 0 0 0 0 1.37c.38 0 .7-.3.7-.68a.7.7 0 0 0-.7-.69Zm-8.6 17.53a1.55 1.55 0 0 1-.83-2.85c-.15-2.69 2.56-6.19 6.71-8.62 1.73-1 3.53-1.72 5.24-2.09.2-.05.44.09.49.32.05.24-.09.47-.3.51a17.55 17.55 0 0 0-5 2c-3.73 2.2-6.3 5.33-6.3 7.64.83.01 1.52.7 1.52 1.54 0 .86-.7 1.55-1.54 1.55Zm0-2.23a.68.68 0 0 0-.68.68.68.68 0 1 0 1.36 0 .7.7 0 0 0-.69-.68Zm15.66-3.44a.4.4 0 0 1-.25-.1.44.44 0 0 1-.04-.61c1.67-2 2.25-3.93 1.53-5.18-.51-.9-1.67-1.4-3.27-1.42a.41.41 0 0 1-.41-.43c0-.24.2-.42.42-.43 1.9.03 3.33.68 3.99 1.85.91 1.6.31 3.84-1.62 6.17-.09.1-.2.15-.35.15Zm-2.17 6.07c-2.18 0-4.96-.82-7.6-2.37a18.56 18.56 0 0 1-4.36-3.49.45.45 0 0 1 0-.6c.2-.16.46-.15.62.02a17.44 17.44 0 0 0 4.16 3.33c3.6 2.11 7.47 2.81 9.51 1.8a1.56 1.56 0 0 1-.16-.64c0-.85.7-1.54 1.54-1.54.84 0 1.53.69 1.53 1.54a1.58 1.58 0 0 1-.8 1.36 1.49 1.49 0 0 1-1.54-.05 5.9 5.9 0 0 1-2.9.64Zm3.26-1.41c.14.09.3.15.45.15.18 0 .35-.07.48-.2a.7.7 0 0 0 0-.97.67.67 0 0 0-.48-.2.68.68 0 0 0-.67.68c0 .16.06.3.14.43.05.02.08.06.08.1Zm-16.35-6.26a.43.43 0 0 1-.35-.22c-.98-1.72-1.15-3.32-.47-4.51.91-1.6 3.13-2.2 6.1-1.66.2.05.38.28.33.5a.39.39 0 0 1-.48.33c-2.56-.45-4.54 0-5.22 1.26-.53.91-.36 2.2.46 3.65.11.2.05.46-.16.58a.45.45 0 0 1-.2.07Zm8.43 1.56a.98.98 0 0 1-.76-.14 1.04 1.04 0 0 1-.3-1.41 1 1 0 0 1 .62-.45 1 1 0 0 1 1.2.79c.1.54-.23 1.08-.76 1.2Z" fill="#fff"></path></svg><svg viewBox="0 0 36 36" fill="none" id="icon-frameworks"><rect width="36" height="36" rx="8.094" fill="#1BFF07"></rect><path d="M22.28 7.28h-9.17c-.53 0-1.03.22-1.4.6-.38.38-.59.9-.6 1.44v17.2c.01.53.22 1.05.6 1.43.37.38.87.6 1.4.6h9.17c.53 0 1.04-.22 1.41-.6.37-.38.58-.9.59-1.43v-17.2c0-.54-.22-1.06-.59-1.44-.37-.38-.88-.6-1.4-.6Zm-10.23 4.07h11.3v13.13h-11.3v-13.13Zm1.06-3.12h9.17c.29 0 .56.11.76.32.2.2.3.48.3.77v1.09h-11.3v-1.1a1.1 1.1 0 0 1 1.07-1.08Zm9.17 19.38h-9.17c-.28 0-.55-.12-.75-.32a1.1 1.1 0 0 1-.31-.77v-1.1h11.3v1.1a1.07 1.07 0 0 1-1.07 1.09Z" fill="#fff" stroke="#fff" stroke-width=".162"></path></svg><svg viewBox="0 0 36 36" fill="none" id="icon-html"><rect width="36" height="36" rx="8.094" fill="#1BFF07"></rect><mask id="icon-html_0" maskUnits="userSpaceOnUse" x="7.8" y="6.818" width="21" height="20" fill="#000"><path fill="#fff" d="M7.8 6.82h21v20h-21z"></path><path d="M17.3 21.79c0 .1-.05.2-.12.27a.37.37 0 0 1-.26.1h-1.1v3.4c0 .1-.04.2-.11.27a.36.36 0 0 1-.53 0 .38.38 0 0 1-.1-.26v-3.4h-1.11c-.1 0-.2-.04-.26-.11a.38.38 0 0 1 0-.54.36.36 0 0 1 .26-.1h2.95c.1 0 .2.03.26.1.07.07.11.17.11.27Zm-5.55-.38c-.1 0-.19.04-.26.11a.38.38 0 0 0-.1.27v1.51h-1.85v-1.51c0-.1-.04-.2-.11-.27a.36.36 0 0 0-.52 0 .38.38 0 0 0-.11.27v3.78c0 .1.04.2.1.26a.37.37 0 0 0 .53 0c.07-.07.1-.16.1-.26v-1.51h1.85v1.5c0 .1.04.2.11.27a.37.37 0 0 0 .52 0 .36.36 0 0 0 .11-.26v-3.78c0-.1-.04-.2-.1-.27a.36.36 0 0 0-.27-.1Zm15.88 3.78h-1.85v-3.4c0-.1-.03-.2-.1-.27a.36.36 0 0 0-.53 0 .38.38 0 0 0-.1.27v3.78c0 .1.03.2.1.26.07.07.17.11.27.11h2.21c.1 0 .2-.04.26-.1a.38.38 0 0 0 0-.54.37.37 0 0 0-.26-.11Zm-4.69-3.76a.38.38 0 0 0-.41.14l-1.55 2.21-1.54-2.2a.38.38 0 0 0-.42-.14.37.37 0 0 0-.18.13.38.38 0 0 0-.07.22v3.78c0 .1.04.2.1.26a.37.37 0 0 0 .53 0c.07-.07.1-.16.1-.26v-2.6l1.18 1.68a.38.38 0 0 0 .3.16.37.37 0 0 0 .3-.16l1.18-1.68v2.6c0 .1.04.2.11.26a.37.37 0 0 0 .52 0 .36.36 0 0 0 .11-.26v-3.78a.38.38 0 0 0-.07-.22.37.37 0 0 0-.19-.14Zm2.1-3.04a.4.4 0 0 1-.26-.1.38.38 0 0 1-.1-.28v-4.15h-4.8c-.1 0-.2-.04-.26-.11a.38.38 0 0 1-.11-.27v-4.9h-8.5c-.1 0-.19.03-.26.1a.38.38 0 0 0-.1.27v9.06c0 .1-.04.2-.11.27a.37.37 0 0 1-.52 0 .38.38 0 0 1-.11-.27v-9.06c0-.3.11-.59.32-.8.21-.21.5-.33.79-.33h8.86a.33.33 0 0 1 .26.11l5.16 5.28c.07.07.11.17.12.27v4.53c0 .1-.04.2-.11.27a.36.36 0 0 1-.26.11Zm-4.8-5.28h3.91l-3.9-4v4Z"></path></mask><path d="M17.3 21.79c0 .1-.05.2-.12.27a.37.37 0 0 1-.26.1h-1.1v3.4c0 .1-.04.2-.11.27a.36.36 0 0 1-.53 0 .38.38 0 0 1-.1-.26v-3.4h-1.11c-.1 0-.2-.04-.26-.11a.38.38 0 0 1 0-.54.36.36 0 0 1 .26-.1h2.95c.1 0 .2.03.26.1.07.07.11.17.11.27Zm-5.55-.38c-.1 0-.19.04-.26.11a.38.38 0 0 0-.1.27v1.51h-1.85v-1.51c0-.1-.04-.2-.11-.27a.36.36 0 0 0-.52 0 .38.38 0 0 0-.11.27v3.78c0 .1.04.2.1.26a.37.37 0 0 0 .53 0c.07-.07.1-.16.1-.26v-1.51h1.85v1.5c0 .1.04.2.11.27a.37.37 0 0 0 .52 0 .36.36 0 0 0 .11-.26v-3.78c0-.1-.04-.2-.1-.27a.36.36 0 0 0-.27-.1Zm15.88 3.78h-1.85v-3.4c0-.1-.03-.2-.1-.27a.36.36 0 0 0-.53 0 .38.38 0 0 0-.1.27v3.78c0 .1.03.2.1.26.07.07.17.11.27.11h2.21c.1 0 .2-.04.26-.1a.38.38 0 0 0 0-.54.37.37 0 0 0-.26-.11Zm-4.69-3.76a.38.38 0 0 0-.41.14l-1.55 2.21-1.54-2.2a.38.38 0 0 0-.42-.14.37.37 0 0 0-.18.13.38.38 0 0 0-.07.22v3.78c0 .1.04.2.1.26a.37.37 0 0 0 .53 0c.07-.07.1-.16.1-.26v-2.6l1.18 1.68a.38.38 0 0 0 .3.16.37.37 0 0 0 .3-.16l1.18-1.68v2.6c0 .1.04.2.11.26a.37.37 0 0 0 .52 0 .36.36 0 0 0 .11-.26v-3.78a.38.38 0 0 0-.07-.22.37.37 0 0 0-.19-.14Zm2.1-3.04a.4.4 0 0 1-.26-.1.38.38 0 0 1-.1-.28v-4.15h-4.8c-.1 0-.2-.04-.26-.11a.38.38 0 0 1-.11-.27v-4.9h-8.5c-.1 0-.19.03-.26.1a.38.38 0 0 0-.1.27v9.06c0 .1-.04.2-.11.27a.37.37 0 0 1-.52 0 .38.38 0 0 1-.11-.27v-9.06c0-.3.11-.59.32-.8.21-.21.5-.33.79-.33h8.86a.33.33 0 0 1 .26.11l5.16 5.28c.07.07.11.17.12.27v4.53c0 .1-.04.2-.11.27a.36.36 0 0 1-.26.11Zm-4.8-5.28h3.91l-3.9-4v4Z" fill="#fff"></path><path d="M17.3 21.79c0 .1-.05.2-.12.27a.37.37 0 0 1-.26.1h-1.1v3.4c0 .1-.04.2-.11.27a.36.36 0 0 1-.53 0 .38.38 0 0 1-.1-.26v-3.4h-1.11c-.1 0-.2-.04-.26-.11a.38.38 0 0 1 0-.54.36.36 0 0 1 .26-.1h2.95c.1 0 .2.03.26.1.07.07.11.17.11.27Zm-5.55-.38c-.1 0-.19.04-.26.11a.38.38 0 0 0-.1.27v1.51h-1.85v-1.51c0-.1-.04-.2-.11-.27a.36.36 0 0 0-.52 0 .38.38 0 0 0-.11.27v3.78c0 .1.04.2.1.26a.37.37 0 0 0 .53 0c.07-.07.1-.16.1-.26v-1.51h1.85v1.5c0 .1.04.2.11.27a.37.37 0 0 0 .52 0 .36.36 0 0 0 .11-.26v-3.78c0-.1-.04-.2-.1-.27a.36.36 0 0 0-.27-.1Zm15.88 3.78h-1.85v-3.4c0-.1-.03-.2-.1-.27a.36.36 0 0 0-.53 0 .38.38 0 0 0-.1.27v3.78c0 .1.03.2.1.26.07.07.17.11.27.11h2.21c.1 0 .2-.04.26-.1a.38.38 0 0 0 0-.54.37.37 0 0 0-.26-.11Zm-4.69-3.76a.38.38 0 0 0-.41.14l-1.55 2.21-1.54-2.2a.38.38 0 0 0-.42-.14.37.37 0 0 0-.18.13.38.38 0 0 0-.07.22v3.78c0 .1.04.2.1.26a.37.37 0 0 0 .53 0c.07-.07.1-.16.1-.26v-2.6l1.18 1.68a.38.38 0 0 0 .3.16.37.37 0 0 0 .3-.16l1.18-1.68v2.6c0 .1.04.2.11.26a.37.37 0 0 0 .52 0 .36.36 0 0 0 .11-.26v-3.78a.38.38 0 0 0-.07-.22.37.37 0 0 0-.19-.14Zm2.1-3.04a.4.4 0 0 1-.26-.1.38.38 0 0 1-.1-.28v-4.15h-4.8c-.1 0-.2-.04-.26-.11a.38.38 0 0 1-.11-.27v-4.9h-8.5c-.1 0-.19.03-.26.1a.38.38 0 0 0-.1.27v9.06c0 .1-.04.2-.11.27a.37.37 0 0 1-.52 0 .38.38 0 0 1-.11-.27v-9.06c0-.3.11-.59.32-.8.21-.21.5-.33.79-.33h8.86a.33.33 0 0 1 .26.11l5.16 5.28c.07.07.11.17.12.27v4.53c0 .1-.04.2-.11.27a.36.36 0 0 1-.26.11Zm-4.8-5.28h3.91l-3.9-4v4Z" stroke="#fff" stroke-width=".324" mask="url(#icon-html_0)"></path></svg><svg viewBox="0 0 36 36" fill="none" id="icon-js"><rect width="36" height="36" rx="8.094" fill="#1BFF07"></rect><path d="M12.4 8.64c0-.65.25-1.28.7-1.74a2.37 2.37 0 0 1 1.7-.72h5.5c.48 0 .94.2 1.27.54l4.7 4.8c.34.35.53.82.53 1.3v10.54a2.5 2.5 0 0 1-.7 1.74c-.45.46-1.06.72-1.7.72h-6.6c.26-.36.45-.77.54-1.23h6.06c.32 0 .62-.13.85-.36.22-.23.35-.54.35-.87v-9.81h-4.2c-.48 0-.94-.2-1.27-.54a1.86 1.86 0 0 1-.53-1.3v-4.3h-4.8c-.32 0-.62.13-.85.36-.22.23-.35.54-.35.87v9.2l-.28.24a1.81 1.81 0 0 0-.92-.75v-8.7Zm9 3.68h3.95l-4.55-4.66v4.04c0 .17.06.32.18.44a.6.6 0 0 0 .42.18Zm-9.6 6.13a.6.6 0 0 0-.42.18.62.62 0 0 0-.18.44v4.9c0 .17-.06.33-.18.44a.6.6 0 0 1-.84 0 .62.62 0 0 1-.18-.43v-.62a.62.62 0 0 0-.18-.43.6.6 0 0 0-.84 0 .62.62 0 0 0-.18.43v.62c0 .49.19.95.53 1.3a1.78 1.78 0 0 0 2.54 0c.34-.35.53-.81.53-1.3v-4.91a.62.62 0 0 0-.18-.44.6.6 0 0 0-.42-.18Zm1.8 1.85c0-.5.19-.96.53-1.3a1.78 1.78 0 0 1 2.54 0c.34.34.53.8.53 1.3a.6.6 0 0 1-.18.43.6.6 0 0 1-.84 0 .62.62 0 0 1-.18-.43.62.62 0 0 0-.18-.44.6.6 0 0 0-.84 0 .62.62 0 0 0-.18.44v.46a.62.62 0 0 0 .33.55l1.07.55a1.82 1.82 0 0 1 1 1.65v.47c0 .49-.19.95-.53 1.3a1.78 1.78 0 0 1-2.54 0 1.86 1.86 0 0 1-.53-1.3.6.6 0 0 1 .18-.44.6.6 0 0 1 .84 0 .6.6 0 0 1 .18.44c0 .16.06.32.18.43a.6.6 0 0 0 .84 0 .62.62 0 0 0 .18-.43v-.47a.62.62 0 0 0-.33-.55l-1.08-.55a1.82 1.82 0 0 1-.99-1.65v-.46Z" fill="#fff"></path></svg></svg>