<svg viewBox="0 0 36 36" fill="none" xmlns="http://www.w3.org/2000/svg"><rect width="36" height="36" rx="8.094" fill="#1BFF07"/><path d="M22.28 7.28h-9.17c-.53 0-1.03.22-1.4.6-.38.38-.59.9-.6 1.44v17.2c.01.53.22 1.05.6 1.43.37.38.87.6 1.4.6h9.17c.53 0 1.04-.22 1.41-.6.37-.38.58-.9.59-1.43v-17.2c0-.54-.22-1.06-.59-1.44-.37-.38-.88-.6-1.4-.6Zm-10.23 4.07h11.3v13.13h-11.3v-13.13Zm1.06-3.12h9.17c.29 0 .56.11.76.32.2.2.3.48.3.77v1.09h-11.3v-1.1a1.1 1.1 0 0 1 1.07-1.08Zm9.17 19.38h-9.17c-.28 0-.55-.12-.75-.32a1.1 1.1 0 0 1-.31-.77v-1.1h11.3v1.1a1.07 1.07 0 0 1-1.07 1.09Z" fill="#fff" stroke="#fff" stroke-width=".162"/></svg>