<svg viewBox="0 0 36 36" fill="none" xmlns="http://www.w3.org/2000/svg"><rect width="36" height="36" rx="8.094" fill="#1BFF07"/><path d="M12.4 8.64c0-.65.25-1.28.7-1.74a2.37 2.37 0 0 1 1.7-.72h5.5c.48 0 .94.2 1.27.54l4.7 4.8c.34.35.53.82.53 1.3v10.54a2.5 2.5 0 0 1-.7 1.74c-.45.46-1.06.72-1.7.72h-6.6c.26-.36.45-.77.54-1.23h6.06c.32 0 .62-.13.85-.36.22-.23.35-.54.35-.87v-9.81h-4.2c-.48 0-.94-.2-1.27-.54a1.86 1.86 0 0 1-.53-1.3v-4.3h-4.8c-.32 0-.62.13-.85.36-.22.23-.35.54-.35.87v9.2l-.28.24a1.81 1.81 0 0 0-.92-.75v-8.7Zm9 3.68h3.95l-4.55-4.66v4.04c0 .17.06.32.18.44a.6.6 0 0 0 .42.18Zm-9.6 6.13a.6.6 0 0 0-.42.18.62.62 0 0 0-.18.44v4.9c0 .17-.06.33-.18.44a.6.6 0 0 1-.84 0 .62.62 0 0 1-.18-.43v-.62a.62.62 0 0 0-.18-.43.6.6 0 0 0-.84 0 .62.62 0 0 0-.18.43v.62c0 .49.19.95.53 1.3a1.78 1.78 0 0 0 2.54 0c.34-.35.53-.81.53-1.3v-4.91a.62.62 0 0 0-.18-.44.6.6 0 0 0-.42-.18Zm1.8 1.85c0-.5.19-.96.53-1.3a1.78 1.78 0 0 1 2.54 0c.34.34.53.8.53 1.3a.6.6 0 0 1-.18.43.6.6 0 0 1-.84 0 .62.62 0 0 1-.18-.43.62.62 0 0 0-.18-.44.6.6 0 0 0-.84 0 .62.62 0 0 0-.18.44v.46a.62.62 0 0 0 .33.55l1.07.55a1.82 1.82 0 0 1 1 1.65v.47c0 .49-.19.95-.53 1.3a1.78 1.78 0 0 1-2.54 0 1.86 1.86 0 0 1-.53-1.3.6.6 0 0 1 .18-.44.6.6 0 0 1 .84 0 .6.6 0 0 1 .18.44c0 .16.06.32.18.43a.6.6 0 0 0 .84 0 .62.62 0 0 0 .18-.43v-.47a.62.62 0 0 0-.33-.55l-1.08-.55a1.82 1.82 0 0 1-.99-1.65v-.46Z" fill="#fff"/></svg>