<svg viewBox="0 0 36 36" fill="none" xmlns="http://www.w3.org/2000/svg"><rect width="36" height="36" rx="8.094" fill="#1BFF07"/><path d="M18.13 27.96c-1.82 0-3.44-1.67-4.46-4.53-.07-.22.04-.48.26-.54a.4.4 0 0 1 .54.25c.88 2.48 2.25 3.96 3.66 3.96 1.02 0 2.03-.76 2.85-2.13.05-.1.15-.17.25-.2.11-.02.22 0 .32.06a.4.4 0 0 1 .18.26.4.4 0 0 1-.04.32c-.98 1.64-2.24 2.55-3.56 2.55Zm4.25-4.76-.12-.02c-.23-.08-.33-.32-.29-.55.5-1.55.74-3.37.74-5.23 0-4.28-1.35-8.07-3.29-9.3-.27.4-.75.72-1.3.72-.82 0-1.5-.7-1.5-1.55 0-.85.68-1.54 1.5-1.54.84 0 1.53.68 1.54 1.52 2.3 1.26 3.9 5.38 3.9 10.15 0 1.94-.27 3.84-.78 5.5a.42.42 0 0 1-.4.3Zm-4.25-16.62a.68.68 0 0 0 0 1.37c.38 0 .7-.3.7-.68a.7.7 0 0 0-.7-.69Zm-8.6 17.53a1.55 1.55 0 0 1-.83-2.85c-.15-2.69 2.56-6.19 6.71-8.62 1.73-1 3.53-1.72 5.24-2.09.2-.05.44.09.49.32.05.24-.09.47-.3.51a17.55 17.55 0 0 0-5 2c-3.73 2.2-6.3 5.33-6.3 7.64.83.01 1.52.7 1.52 1.54 0 .86-.7 1.55-1.54 1.55Zm0-2.23a.68.68 0 0 0-.68.68.68.68 0 1 0 1.36 0 .7.7 0 0 0-.69-.68Zm15.66-3.44a.4.4 0 0 1-.25-.1.44.44 0 0 1-.04-.61c1.67-2 2.25-3.93 1.53-5.18-.51-.9-1.67-1.4-3.27-1.42a.41.41 0 0 1-.41-.43c0-.24.2-.42.42-.43 1.9.03 3.33.68 3.99 1.85.91 1.6.31 3.84-1.62 6.17-.09.1-.2.15-.35.15Zm-2.17 6.07c-2.18 0-4.96-.82-7.6-2.37a18.56 18.56 0 0 1-4.36-3.49.45.45 0 0 1 0-.6c.2-.16.46-.15.62.02a17.44 17.44 0 0 0 4.16 3.33c3.6 2.11 7.47 2.81 9.51 1.8a1.56 1.56 0 0 1-.16-.64c0-.85.7-1.54 1.54-1.54.84 0 1.53.69 1.53 1.54a1.58 1.58 0 0 1-.8 1.36 1.49 1.49 0 0 1-1.54-.05 5.9 5.9 0 0 1-2.9.64Zm3.26-1.41c.14.09.3.15.45.15.18 0 .35-.07.48-.2a.7.7 0 0 0 0-.97.67.67 0 0 0-.48-.2.68.68 0 0 0-.67.68c0 .16.06.3.14.43.05.02.08.06.08.1Zm-16.35-6.26a.43.43 0 0 1-.35-.22c-.98-1.72-1.15-3.32-.47-4.51.91-1.6 3.13-2.2 6.1-1.66.2.05.38.28.33.5a.39.39 0 0 1-.48.33c-2.56-.45-4.54 0-5.22 1.26-.53.91-.36 2.2.46 3.65.11.2.05.46-.16.58a.45.45 0 0 1-.2.07Zm8.43 1.56a.98.98 0 0 1-.76-.14 1.04 1.04 0 0 1-.3-1.41 1 1 0 0 1 .62-.45 1 1 0 0 1 1.2.79c.1.54-.23 1.08-.76 1.2Z" fill="#fff"/></svg>