<svg viewBox="0 0 36 36" fill="none" xmlns="http://www.w3.org/2000/svg"><rect width="36" height="36" rx="8.094" fill="#1BFF07"/><mask id="a" maskUnits="userSpaceOnUse" x="7.8" y="6.818" width="21" height="20" fill="#000"><path fill="#fff" d="M7.8 6.82h21v20h-21z"/><path d="M17.3 21.79c0 .1-.05.2-.12.27a.37.37 0 0 1-.26.1h-1.1v3.4c0 .1-.04.2-.11.27a.36.36 0 0 1-.53 0 .38.38 0 0 1-.1-.26v-3.4h-1.11c-.1 0-.2-.04-.26-.11a.38.38 0 0 1 0-.54.36.36 0 0 1 .26-.1h2.95c.1 0 .2.03.26.1.07.07.11.17.11.27Zm-5.55-.38c-.1 0-.19.04-.26.11a.38.38 0 0 0-.1.27v1.51h-1.85v-1.51c0-.1-.04-.2-.11-.27a.36.36 0 0 0-.52 0 .38.38 0 0 0-.11.27v3.78c0 .1.04.2.1.26a.37.37 0 0 0 .53 0c.07-.07.1-.16.1-.26v-1.51h1.85v1.5c0 .1.04.2.11.27a.37.37 0 0 0 .52 0 .36.36 0 0 0 .11-.26v-3.78c0-.1-.04-.2-.1-.27a.36.36 0 0 0-.27-.1Zm15.88 3.78h-1.85v-3.4c0-.1-.03-.2-.1-.27a.36.36 0 0 0-.53 0 .38.38 0 0 0-.1.27v3.78c0 .1.03.2.1.26.07.07.17.11.27.11h2.21c.1 0 .2-.04.26-.1a.38.38 0 0 0 0-.54.37.37 0 0 0-.26-.11Zm-4.69-3.76a.38.38 0 0 0-.41.14l-1.55 2.21-1.54-2.2a.38.38 0 0 0-.42-.14.37.37 0 0 0-.18.13.38.38 0 0 0-.07.22v3.78c0 .1.04.2.1.26a.37.37 0 0 0 .53 0c.07-.07.1-.16.1-.26v-2.6l1.18 1.68a.38.38 0 0 0 .3.16.37.37 0 0 0 .3-.16l1.18-1.68v2.6c0 .1.04.2.11.26a.37.37 0 0 0 .52 0 .36.36 0 0 0 .11-.26v-3.78a.38.38 0 0 0-.07-.22.37.37 0 0 0-.19-.14Zm2.1-3.04a.4.4 0 0 1-.26-.1.38.38 0 0 1-.1-.28v-4.15h-4.8c-.1 0-.2-.04-.26-.11a.38.38 0 0 1-.11-.27v-4.9h-8.5c-.1 0-.19.03-.26.1a.38.38 0 0 0-.1.27v9.06c0 .1-.04.2-.11.27a.37.37 0 0 1-.52 0 .38.38 0 0 1-.11-.27v-9.06c0-.3.11-.59.32-.8.21-.21.5-.33.79-.33h8.86a.33.33 0 0 1 .26.11l5.16 5.28c.07.07.11.17.12.27v4.53c0 .1-.04.2-.11.27a.36.36 0 0 1-.26.11Zm-4.8-5.28h3.91l-3.9-4v4Z"/></mask><path d="M17.3 21.79c0 .1-.05.2-.12.27a.37.37 0 0 1-.26.1h-1.1v3.4c0 .1-.04.2-.11.27a.36.36 0 0 1-.53 0 .38.38 0 0 1-.1-.26v-3.4h-1.11c-.1 0-.2-.04-.26-.11a.38.38 0 0 1 0-.54.36.36 0 0 1 .26-.1h2.95c.1 0 .2.03.26.1.07.07.11.17.11.27Zm-5.55-.38c-.1 0-.19.04-.26.11a.38.38 0 0 0-.1.27v1.51h-1.85v-1.51c0-.1-.04-.2-.11-.27a.36.36 0 0 0-.52 0 .38.38 0 0 0-.11.27v3.78c0 .1.04.2.1.26a.37.37 0 0 0 .53 0c.07-.07.1-.16.1-.26v-1.51h1.85v1.5c0 .1.04.2.11.27a.37.37 0 0 0 .52 0 .36.36 0 0 0 .11-.26v-3.78c0-.1-.04-.2-.1-.27a.36.36 0 0 0-.27-.1Zm15.88 3.78h-1.85v-3.4c0-.1-.03-.2-.1-.27a.36.36 0 0 0-.53 0 .38.38 0 0 0-.1.27v3.78c0 .1.03.2.1.26.07.07.17.11.27.11h2.21c.1 0 .2-.04.26-.1a.38.38 0 0 0 0-.54.37.37 0 0 0-.26-.11Zm-4.69-3.76a.38.38 0 0 0-.41.14l-1.55 2.21-1.54-2.2a.38.38 0 0 0-.42-.14.37.37 0 0 0-.18.13.38.38 0 0 0-.07.22v3.78c0 .1.04.2.1.26a.37.37 0 0 0 .53 0c.07-.07.1-.16.1-.26v-2.6l1.18 1.68a.38.38 0 0 0 .3.16.37.37 0 0 0 .3-.16l1.18-1.68v2.6c0 .1.04.2.11.26a.37.37 0 0 0 .52 0 .36.36 0 0 0 .11-.26v-3.78a.38.38 0 0 0-.07-.22.37.37 0 0 0-.19-.14Zm2.1-3.04a.4.4 0 0 1-.26-.1.38.38 0 0 1-.1-.28v-4.15h-4.8c-.1 0-.2-.04-.26-.11a.38.38 0 0 1-.11-.27v-4.9h-8.5c-.1 0-.19.03-.26.1a.38.38 0 0 0-.1.27v9.06c0 .1-.04.2-.11.27a.37.37 0 0 1-.52 0 .38.38 0 0 1-.11-.27v-9.06c0-.3.11-.59.32-.8.21-.21.5-.33.79-.33h8.86a.33.33 0 0 1 .26.11l5.16 5.28c.07.07.11.17.12.27v4.53c0 .1-.04.2-.11.27a.36.36 0 0 1-.26.11Zm-4.8-5.28h3.91l-3.9-4v4Z" fill="#fff"/><path d="M17.3 21.79c0 .1-.05.2-.12.27a.37.37 0 0 1-.26.1h-1.1v3.4c0 .1-.04.2-.11.27a.36.36 0 0 1-.53 0 .38.38 0 0 1-.1-.26v-3.4h-1.11c-.1 0-.2-.04-.26-.11a.38.38 0 0 1 0-.54.36.36 0 0 1 .26-.1h2.95c.1 0 .2.03.26.1.07.07.11.17.11.27Zm-5.55-.38c-.1 0-.19.04-.26.11a.38.38 0 0 0-.1.27v1.51h-1.85v-1.51c0-.1-.04-.2-.11-.27a.36.36 0 0 0-.52 0 .38.38 0 0 0-.11.27v3.78c0 .1.04.2.1.26a.37.37 0 0 0 .53 0c.07-.07.1-.16.1-.26v-1.51h1.85v1.5c0 .1.04.2.11.27a.37.37 0 0 0 .52 0 .36.36 0 0 0 .11-.26v-3.78c0-.1-.04-.2-.1-.27a.36.36 0 0 0-.27-.1Zm15.88 3.78h-1.85v-3.4c0-.1-.03-.2-.1-.27a.36.36 0 0 0-.53 0 .38.38 0 0 0-.1.27v3.78c0 .1.03.2.1.26.07.07.17.11.27.11h2.21c.1 0 .2-.04.26-.1a.38.38 0 0 0 0-.54.37.37 0 0 0-.26-.11Zm-4.69-3.76a.38.38 0 0 0-.41.14l-1.55 2.21-1.54-2.2a.38.38 0 0 0-.42-.14.37.37 0 0 0-.18.13.38.38 0 0 0-.07.22v3.78c0 .1.04.2.1.26a.37.37 0 0 0 .53 0c.07-.07.1-.16.1-.26v-2.6l1.18 1.68a.38.38 0 0 0 .3.16.37.37 0 0 0 .3-.16l1.18-1.68v2.6c0 .1.04.2.11.26a.37.37 0 0 0 .52 0 .36.36 0 0 0 .11-.26v-3.78a.38.38 0 0 0-.07-.22.37.37 0 0 0-.19-.14Zm2.1-3.04a.4.4 0 0 1-.26-.1.38.38 0 0 1-.1-.28v-4.15h-4.8c-.1 0-.2-.04-.26-.11a.38.38 0 0 1-.11-.27v-4.9h-8.5c-.1 0-.19.03-.26.1a.38.38 0 0 0-.1.27v9.06c0 .1-.04.2-.11.27a.37.37 0 0 1-.52 0 .38.38 0 0 1-.11-.27v-9.06c0-.3.11-.59.32-.8.21-.21.5-.33.79-.33h8.86a.33.33 0 0 1 .26.11l5.16 5.28c.07.07.11.17.12.27v4.53c0 .1-.04.2-.11.27a.36.36 0 0 1-.26.11Zm-4.8-5.28h3.91l-3.9-4v4Z" stroke="#fff" stroke-width=".324" mask="url(#a)"/></svg>