<svg viewBox="0 0 393 484" fill="none" xmlns="http://www.w3.org/2000/svg"><path d="M525.1 296.5h-186.69v-274.05h186.7v274.06Zm-181.67-5.01h176.66v-264.02h-176.66v264.02Z" fill="#EBEBEB"/><path d="M529.66 32.6h-195.8v7h195.8v-7Zm0 7.86h-195.8v7h195.8v-7Zm0 7.88h-195.8v7h195.8v-7Zm0 7.87h-195.8v7h195.8v-7Zm0 7.86h-195.8v7h195.8v-7Zm0 7.87h-195.8v7h195.8v-7Zm0 7.88h-195.8v7h195.8v-7Zm0 7.86h-195.8v7h195.8v-7Zm0 7.87h-195.8v7h195.8v-7Z" fill="#EBEBEB"/><path d="M537.45 21.47h-211.4v14.62h211.4v-14.62Z" fill="#DBDBDB"/><path d="M32.6 165.1c0-1.05.15-3.85.15-5.02 0-5.11-1.83-7.4-6.58-7.53a3.37 3.37 0 1 1 0-6.72c4.75-.2 6.58-2.45 6.58-7.62 0-1.26-.14-4-.14-5.03 0-6.78 2.87-11.12 13.72-13.5a3.02 3.02 0 0 1 1.88 5.74c-6.79 2.1-7.77 4.27-7.77 9.03 0 1.4.15 3.7.15 5.18 0 5.46-2.66 8.12-7.28 9.59 4.68 1.53 7.28 4.13 7.28 9.58 0 1.48-.15 3.77-.15 5.19 0 4.75.98 6.93 7.77 9.02a3.03 3.03 0 0 1-1.88 5.74c-10.86-2.45-13.72-6.8-13.72-13.65Zm41-32c0 1.06-.14 3.86-.14 5.03 0 5.17 1.9 7.42 6.66 7.62a3.37 3.37 0 1 1 0 6.72c-4.76.15-6.66 2.51-6.66 7.53 0 1.2.14 4 .14 5.03 0 6.85-2.86 11.2-13.7 13.57a3.01 3.01 0 0 1-1.83-5.74c6.72-2.1 7.7-4.27 7.7-9.03 0-1.4-.14-3.7-.14-5.18 0-5.45 2.66-8.11 7.28-9.58-4.7-1.55-7.28-4.13-7.28-9.6 0-1.47.14-3.76.14-5.17 0-4.76-.98-6.93-7.7-9.03a3.02 3.02 0 0 1 1.82-5.74c10.85 2.45 13.71 6.8 13.71 13.58Zm144.32-65.69a4.1 4.1 0 0 1-2.86 7.03 4.34 4.34 0 0 1-3-1.16l-18.3-18.58c-.2 0-.27-.2-.33-.39-.07-.05-.13-.1-.2-.13a1.7 1.7 0 0 1-.2-.52.37.37 0 0 1-.2-.26c-.06-.13-.06-.33-.12-.4a.7.7 0 0 1-.13-.32v-.45c0-.14-.07-.2-.07-.39s.08-.26.08-.33v-.46c0-.13.12-.19.12-.25s.06-.33.13-.53c.06-.2.07 0 .07-.12a4.24 4.24 0 0 1 .4-.71h.05c.09-.2.22-.36.4-.47l18.3-18.56a4.25 4.25 0 0 1 5.86 0 4.14 4.14 0 0 1 0 5.86l-15.44 15.57 15.44 15.57Zm16.61 2.09 15.96-37.99a3.63 3.63 0 0 1 4.76-1.9 3.53 3.53 0 0 1 1.82 4.64l-15.96 38.05a3.62 3.62 0 0 1-3.32 2.14c-.44 0-.86-.08-1.26-.26a3.51 3.51 0 0 1-2-4.68Zm54.07-15.32s0 .07-.06.07c-.14.16-.3.31-.45.45l-18.31 18.58a4.23 4.23 0 0 1-6.77-1.35 4.13 4.13 0 0 1 .9-4.52l15.44-15.57-15.43-15.5a4.12 4.12 0 0 1 2.93-7.05c1.09 0 2.14.43 2.93 1.18l18.3 18.56a4 4 0 0 1 .46.46c.06 0 .06.13.06.13a6.82 6.82 0 0 1 .39.71c.04.2.11.4.2.6v.65s.06.25.06.32c0 .08-.06.26-.06.33v.55c-.08.2-.15.4-.2.6 0 0-.06 0-.06.2s-.18.33-.33.6Zm-24.96 451.44c139.76 0 253.06-9.03 253.06-20.17 0-11.14-113.3-20.17-253.06-20.17s-253.06 9.03-253.06 20.17c0 11.14 113.3 20.17 253.06 20.17Z" fill="#EBEBEB"/><path d="M502.25 461.04h-152.07l30.32-176.4h113.72l8.03 176.4Z" fill="#DBDBDB"/><path d="m.9 461.04 65.68-.3 65.68-.11 131.38-.22 131.37.22 65.69.1 65.69.31-65.7.31-65.68.1-131.37.22-131.38-.22-65.68-.1-65.69-.31Z" fill="#263238"/><path d="M143.65 21.47h-124.78v79.6h124.78v-79.6Z" fill="#fff"/><path d="M144.43 101.86h-126.35v-81.18h126.35v81.18Zm-124.78-1.58h123.21v-78.02h-123.21v78.02Z" fill="#EBEBEB"/><path d="M143.65 21.47h-124.78v15.05h124.78v-15.05Z" fill="#1BFF07"/><path d="M144.43 37.31h-126.35v-16.63h126.35v16.63Zm-124.78-1.58h123.21v-13.47h-123.21v13.47Z" fill="#EBEBEB"/><path d="M33 29.1a3.77 3.77 0 1 1-7.54 0 3.77 3.77 0 0 1 7.54 0Z" fill="#A6A6A6"/><path d="M48.47 29.1a3.77 3.77 0 1 1-7.54 0 3.77 3.77 0 0 1 7.54 0Z" fill="#EBEBEB"/><path d="M64 29.1a3.77 3.77 0 1 1-7.54 0 3.77 3.77 0 0 1 7.54 0Z" fill="#fff"/><path d="M40.4 66.28a15.4 15.4 0 0 1 15.39-15.07 15.7 15.7 0 0 1 9.69 3.28 2.41 2.41 0 0 1-2.94 3.77 10.4 10.4 0 0 0-6.75-2.31c-2.8.02-5.5 1.1-7.54 3.01a10.37 10.37 0 0 0-3.09 7.32 10.17 10.17 0 0 0 3.07 7.3 11.1 11.1 0 0 0 7.53 3.02c2.45.04 4.84-.78 6.76-2.3a2.51 2.51 0 0 1 3.35.46 2.51 2.51 0 0 1-.42 3.35 15.7 15.7 0 0 1-20.47-1.12 15.33 15.33 0 0 1-4.58-10.7Zm32.7 7.82a2.18 2.18 0 0 1 3.06-.31 13.65 13.65 0 0 0 8.02 3.23c1.86.03 3.69-.5 5.23-1.55a3.77 3.77 0 0 0 1.8-3.02 2.3 2.3 0 0 0-.37-1.35c-.32-.5-.75-.93-1.25-1.25a16.8 16.8 0 0 0-5.74-1.97h-.09a22.47 22.47 0 0 1-5.4-1.64 8.97 8.97 0 0 1-3.9-3.26 6.5 6.5 0 0 1-.97-3.44 7.8 7.8 0 0 1 3.35-6.13 12.46 12.46 0 0 1 7.25-2.22c3.32.16 6.5 1.34 9.14 3.36a2.16 2.16 0 0 1 .59 2.98 2.12 2.12 0 0 1-2.98.63c-2.14-1.43-4.2-2.69-6.75-2.69a8.09 8.09 0 0 0-4.7 1.42 3.36 3.36 0 0 0-1.58 2.65c-.02.4.08.82.3 1.17.3.44.68.8 1.13 1.09a14.3 14.3 0 0 0 5.24 1.84h.08c2 .35 3.94.94 5.8 1.76a9.77 9.77 0 0 1 4.17 3.5 6.68 6.68 0 0 1 1.02 3.55 8.12 8.12 0 0 1-3.62 6.5 13.08 13.08 0 0 1-7.74 2.39 17.97 17.97 0 0 1-10.74-4.2 2.21 2.21 0 0 1-.35-3.05Zm27.55 0a2.18 2.18 0 0 1 3.06-.31 13.58 13.58 0 0 0 8 3.23c1.87.03 3.7-.5 5.25-1.55a3.77 3.77 0 0 0 1.8-3.02c0-.48-.13-.95-.38-1.35-.32-.5-.75-.93-1.26-1.25-1.78-1-3.72-1.67-5.74-1.97h-.08a22.76 22.76 0 0 1-5.41-1.64 8.93 8.93 0 0 1-3.9-3.26 6.49 6.49 0 0 1-.96-3.44 7.76 7.76 0 0 1 3.35-6.13 12.45 12.45 0 0 1 7.26-2.22 16.4 16.4 0 0 1 9.14 3.36 2.16 2.16 0 0 1 .57 2.98 2.13 2.13 0 0 1-2.97.63c-2.14-1.43-4.2-2.69-6.74-2.69a8.05 8.05 0 0 0-4.7 1.42 3.36 3.36 0 0 0-1.6 2.65c-.02.4.08.81.3 1.17.3.43.68.8 1.12 1.09 1.62.95 3.4 1.58 5.25 1.84h.08c2 .35 3.94.94 5.79 1.76a9.8 9.8 0 0 1 4.19 3.5c.66 1.06 1 2.3 1 3.55a8.12 8.12 0 0 1-3.6 6.5 13.14 13.14 0 0 1-7.76 2.39 18.04 18.04 0 0 1-10.73-4.2 2.22 2.22 0 0 1-.33-3.05Z" fill="#EBEBEB"/><path d="M349.75 249.22h-124.78v79.61h124.78v-79.61Z" fill="#fff"/><path d="M350.54 329.62h-126.37v-81.2h126.37v81.2Zm-124.78-1.58h123.26v-78.03h-123.26v78.03Z" fill="#EBEBEB"/><path d="M349.75 249.22h-124.78v15.05h124.78v-15.05Z" fill="#1BFF07"/><path d="M350.54 265.07h-126.37v-16.64h126.37v16.64Zm-124.78-1.59h123.26v-13.47h-123.26v13.47Z" fill="#EBEBEB"/><path d="M239.1 256.86a3.76 3.76 0 1 1-7.52 0 3.76 3.76 0 0 1 7.52 0Z" fill="#A6A6A6"/><path d="M254.57 256.86a3.76 3.76 0 1 1-7.52 0 3.76 3.76 0 0 1 7.52 0Z" fill="#EBEBEB"/><path d="M270.04 256.86a3.76 3.76 0 1 1-7.52 0 3.76 3.76 0 0 1 7.52 0Z" fill="#fff"/><path d="M248.27 294.05a15.38 15.38 0 0 1 15.38-15.07 15.7 15.7 0 0 1 9.7 3.26 2.51 2.51 0 0 1 .4 3.36 2.5 2.5 0 0 1-3.34.46 10.43 10.43 0 0 0-6.77-2.36c-2.8.02-5.5 1.1-7.53 3.03a10.2 10.2 0 0 0 0 14.59 11.1 11.1 0 0 0 7.53 3.01 10.5 10.5 0 0 0 6.75-2.3 2.5 2.5 0 0 1 3.36.46 2.52 2.52 0 0 1-.42 3.35 15.69 15.69 0 0 1-20.46-1.1 15.33 15.33 0 0 1-4.6-10.7Zm40.21 2.64h-6a2.32 2.32 0 0 1-2.49-2.3 2.31 2.31 0 0 1 2.48-2.31h5.95v-5.87a2.39 2.39 0 0 1 4.78 0v5.83h5.96a2.3 2.3 0 0 1 0 4.6h-5.96v5.9a2.38 2.38 0 1 1-4.77 0l.05-5.86Zm25.99 0h-5.96a2.3 2.3 0 1 1 0-4.61h5.96v-5.87a2.36 2.36 0 0 1 2.38-2.4 2.4 2.4 0 0 1 2.4 2.4v5.83h5.91a2.31 2.31 0 0 1 0 4.6h-5.95v5.9a2.4 2.4 0 0 1-4.61.92c-.12-.3-.18-.6-.17-.92l.04-5.86Z" fill="#EBEBEB"/><path d="M291.55 96.27h-208.1v170.9h208.1v-170.9Z" fill="#fff"/><path d="M292.34 267.98h-209.68v-172.5h209.68v172.5Zm-208.1-1.58h206.52v-169.34h-206.52v169.34Z" fill="#EBEBEB"/><path d="M291.55 96.27h-208.1v15.05h208.1v-15.05Z" fill="#1BFF07"/><path d="M292.34 112.11h-209.68v-16.62h209.68v16.62Zm-208.1-1.58h206.52v-13.47h-206.52v13.47Z" fill="#EBEBEB"/><path d="M97.57 103.91a3.76 3.76 0 1 1-7.52 0 3.76 3.76 0 0 1 7.52 0Z" fill="#A6A6A6"/><path d="M113.04 103.91a3.76 3.76 0 1 1-7.52 0 3.76 3.76 0 0 1 7.52 0Z" fill="#EBEBEB"/><path d="M128.52 103.91a3.76 3.76 0 1 1-7.52 0 3.76 3.76 0 0 1 7.52 0Z" fill="#fff"/><path d="M107.64 141.27h-8.05v2.94h8.05v-2.94Zm98.19 0h-92.32v2.94h92.32v-2.94Z" fill="#EBEBEB"/><path d="M226.06 141.27h-15.28v2.94h15.28v-2.94Z" fill="#1BFF07"/><path d="M261.03 180.61h-15.3v2.94h15.3v-2.94Z" fill="#EBEBEB"/><path d="M255.82 141.27h-26.43v2.94h26.43v-2.94Z" fill="#A6A6A6"/><path d="M115.7 149.14h-8.06v2.94h8.05v-2.94Z" fill="#EBEBEB"/><path d="M181.94 149.14h-60.59v2.94h60.59v-2.94Zm60.16 31.47h-35.47v2.94h35.47v-2.94Zm-70.72-7.86h-57.87v2.94h57.87v-2.94Z" fill="#A6A6A6"/><path d="M161.95 157h-40.6v2.94h40.6v-2.94Z" fill="#1BFF07"/><path d="M236.48 164.88h-15.48v2.94h15.48v-2.94Zm-5.2-7.88h-64.82v2.94h64.82v-2.94Z" fill="#A6A6A6"/><path d="M190.89 180.61h-77.38v2.94h77.38v-2.94Zm78.73-31.47h-41.94v2.94h41.94v-2.94Z" fill="#1BFF07"/><path d="M224.35 149.14h-38.6v2.94h38.6v-2.94Zm36.04 7.86h-26.06v2.94h26.06v-2.94Zm-144.69 0h-8.06v2.94h8.05v-2.94Z" fill="#EBEBEB"/><path d="M107.64 164.88h-8.05v2.94h8.05v-2.94Z" fill="#A6A6A6"/><path d="M161.07 164.88h-47.56v2.94h47.56v-2.94Zm7.85 23.6h-47.57v2.94h47.57v-2.94Z" fill="#EBEBEB"/><path d="M246.21 196.36h-36.16v2.93h36.16v-2.93Zm-25.73-7.88h-47.7v2.94h47.7v-2.94Z" fill="#1BFF07"/><path d="M205.9 196.36h-41.53v2.93h41.52v-2.93Z" fill="#EBEBEB"/><path d="M135.13 196.36h-13.78v2.93h13.78v-2.93Z" fill="#A6A6A6"/><path d="M226.06 172.75h-51.4v2.94h51.4v-2.94Z" fill="#EBEBEB"/><path d="M262.1 172.75h-32.71v2.94h32.7v-2.94Zm-44.86-7.87h-51.34v2.94h51.34v-2.94Z" fill="#1BFF07"/><path d="M107.64 172.75h-8.05v2.94h8.05v-2.94Zm0 7.86h-8.05v2.94h8.05v-2.94Z" fill="#EBEBEB"/><path d="M115.7 188.48h-8.06v2.94h8.05v-2.94Z" fill="#A6A6A6"/><path d="M115.7 196.36h-8.06v2.93h8.05v-2.93Zm-8.06 6.58h-8.05v2.94h8.05v-2.94Zm98.19 0h-92.32v2.94h92.32v-2.94Zm-90.13 7.87h-8.06v2.94h8.05v-2.94Z" fill="#EBEBEB"/><path d="M181.94 210.81h-60.59v2.94h60.59v-2.94Zm-10.56 23.61h-57.87v2.94h57.87v-2.94Z" fill="#A6A6A6"/><path d="M161.95 218.68h-40.6v2.94h40.6v-2.94Z" fill="#1BFF07"/><path d="M231.28 218.68h-64.82v2.94h64.82v-2.94Z" fill="#A6A6A6"/><path d="M190.89 242.28h-77.38v2.94h77.38v-2.94Zm78.73-31.47h-41.94v2.94h41.94v-2.94Z" fill="#1BFF07"/><path d="M224.35 210.81h-38.6v2.94h38.6v-2.94Zm36.04 7.87h-26.06v2.94h26.06v-2.94Zm-144.69 0h-8.06v2.94h8.05v-2.94Z" fill="#EBEBEB"/><path d="M107.64 226.54h-8.05v2.94h8.05v-2.94Z" fill="#A6A6A6"/><path d="M161.07 226.54h-47.56v2.94h47.56v-2.94Zm64.99 7.88h-51.4v2.94h51.4v-2.94Z" fill="#EBEBEB"/><path d="M217.24 226.54h-51.34v2.94h51.34v-2.94Z" fill="#1BFF07"/><path d="M107.64 234.42h-8.05v2.94h8.05v-2.94Z" fill="#EBEBEB"/><path d="M104.57 133.53a.7.7 0 0 1 0 1 .72.72 0 0 1-1 0l-3.1-3.16a.1.1 0 0 1 0-.06v-.09a.2.2 0 0 1 0-.07v-.41a.15.15 0 0 1 .08-.08l3.1-3.15a.72.72 0 0 1 1 0 .7.7 0 0 1 0 .99l-2.62 2.64 2.54 2.4Zm2.81.36 2.71-6.44a.6.6 0 0 1 .56-.38.62.62 0 0 1 .43.18.6.6 0 0 1 .13.66l-2.71 6.45a.61.61 0 0 1-.57.37.43.43 0 0 1-.21 0 .59.59 0 0 1-.34-.84Zm9.16-2.6a.2.2 0 0 1-.07.07l-3.1 3.15a.77.77 0 0 1-.5.2.72.72 0 0 1-.5-.2.7.7 0 0 1 0-.99l2.62-2.65-2.61-2.63a.7.7 0 0 1 0-1 .72.72 0 0 1 .99 0l3.1 3.16c.03.01.06.04.07.07a.4.4 0 0 1 .07.1v.43l-.07.29Z" fill="#1BFF07"/><path d="M315.28 72.3h-85v31.49h85v-31.48Z" fill="#455A64"/><path d="M242.54 94.57v-13.96a1.25 1.25 0 0 1 1.26-1.26 1.25 1.25 0 0 1 1.33 1.26v5.67h6.13v-5.67a1.25 1.25 0 0 1 1.25-1.26 1.25 1.25 0 0 1 1.34 1.26v13.96a1.24 1.24 0 0 1-.4.92 1.25 1.25 0 0 1-.94.34 1.25 1.25 0 0 1-1.25-1.26v-5.67h-6.13v5.67a1.24 1.24 0 0 1-.4.92 1.26 1.26 0 0 1-.93.34 1.25 1.25 0 0 1-1.26-1.26Zm26.9-12.63h-3.77v12.63a1.3 1.3 0 1 1-2.6 0v-12.63h-3.77a1.26 1.26 0 0 1-1.26-1.33 1.25 1.25 0 0 1 1.25-1.26h10.05a1.25 1.25 0 0 1 1.26 1.26 1.33 1.33 0 0 1-1.16 1.33Zm19.45-1.34v13.97a1.34 1.34 0 0 1-1.33 1.26 1.26 1.26 0 0 1-1.26-1.26v-9.96l-3.41 4.74a1.26 1.26 0 0 1-1.06.54 1.35 1.35 0 0 1-1.09-.54l-3.38-4.74v9.96a1.31 1.31 0 1 1-2.62 0v-13.96a1.25 1.25 0 0 1 1.25-1.26h.08a1.26 1.26 0 0 1 1.04.54l4.71 6.53 4.7-6.53a1.26 1.26 0 0 1 1.08-.54 1.34 1.34 0 0 1 1.29 1.26Zm5.73 13.97v-13.96a1.25 1.25 0 0 1 1.25-1.26 1.25 1.25 0 0 1 1.22.76c.06.16.1.33.1.5v12.63h6.42a1.32 1.32 0 1 1 0 2.64h-7.74a1.26 1.26 0 0 1-1.25-1.3Z" fill="#fff"/><path d="M88.13 192.55h-70.05v31.48h70.05v-31.48Z" fill="#455A64"/><path d="M38.89 209.7h-2.88v5.13a1.31 1.31 0 1 1-2.62 0v-14a1.26 1.26 0 0 1 1.25-1.26h4.25a5.06 5.06 0 1 1 0 10.12Zm-2.88-2.6h2.88a2.44 2.44 0 0 0 0-4.87h-2.88v4.88Zm11.16 7.73v-14a1.25 1.25 0 1 1 2.51 0v5.67h6.13v-5.67a1.25 1.25 0 0 1 1.26-1.26 1.23 1.23 0 0 1 .93.34 1.24 1.24 0 0 1 .4.92v13.96a1.25 1.25 0 0 1-1.33 1.25 1.26 1.26 0 0 1-1.26-1.25v-5.68h-6.01v5.68a1.26 1.26 0 0 1-1.26 1.25 1.24 1.24 0 0 1-.95-.3 1.26 1.26 0 0 1-.42-.91Zm22.31-5.13h-2.9v5.13a1.31 1.31 0 0 1-2.63 0v-14a1.26 1.26 0 0 1 1.25-1.26h4.23a5.06 5.06 0 1 1 0 10.12h.05Zm-2.9-2.6h2.9a2.44 2.44 0 0 0 0-4.87h-2.9v4.88Z" fill="#fff"/><path d="m294.62 190.5 5.3 12.84-5.3 2.2-5.34-12.92-8.78 6.8v-36.15l25.31 25.56-11.2 1.67Zm-14.12-31.11a4.96 4.96 0 0 1-.32-1.82c-.02-.62.1-1.24.32-1.82.23.58.33 1.2.32 1.82 0 .62-.1 1.24-.32 1.82Zm-3.14 1.26a5.03 5.03 0 0 1-1.5-1.06 4.53 4.53 0 0 1-1.06-1.52 4.8 4.8 0 0 1 1.5 1.07c.46.42.82.94 1.06 1.5Zm-1.29 3.1a5.22 5.22 0 0 1-3.63 0 5.4 5.4 0 0 1 3.63 0Zm1.29 3.17c-.24.57-.6 1.09-1.05 1.51-.43.45-.94.81-1.5 1.07.24-.58.6-1.1 1.05-1.52.43-.44.94-.8 1.5-1.06Zm7.63-3.17a5.43 5.43 0 0 1 3.64 0 5.24 5.24 0 0 1-3.64 0Zm-1.36-3.1c.25-.57.6-1.08 1.05-1.51.43-.45.95-.82 1.52-1.07a5.2 5.2 0 0 1-2.57 2.51v.07Z" fill="#263238"/><path d="M375.85 314.37c-9.68 42.16-29.28 95.54-44.4 106.31-12.21 8.7-76.29 23.99-79.85 24.38-8.85.89-26.37-61.6-17.15-64.13 11.56-3.2 66.46-4.91 69.58-8.11 3.13-3.2 23.22-30.42 45.84-61.77 15.6-21.66 31.99-22.84 25.98 3.31Z" fill="#F8D197"/><path d="M258.68 441.63c-1.06.52-16.01 8.05-25.26 10.73-6.9 2-26.92 7.22-29.87-.15-2.03-5.02 9.38-9.49 17.37-12.83 4.22-1.75 9.42-6.17 8.18-8.87-2.17-4.74-13.02 0-20.16 4.16-13.8 8.02-32.18 22.45-40.6 15.45-3.18-2.64.51-7.46 5.92-12.18-8.78 5.5-18.14 10.04-21.8 7.22-2.08-1.6-2.18-3.77-1-6.28-2.72.88-5.12.7-6.79-1.06-2.85-2.99-1.47-7.4 1.66-11.91a3.4 3.4 0 0 1-2.59-1.71c-6.05-9.22 24.2-35.67 34.67-38.15 30.77-7.32 63.5-4.64 63.5-4.64 12.1 9.65 16.8 60.2 16.77 60.22Z" fill="#F8D197"/><path d="M213.41 413.29a52.08 52.08 0 0 0-20.52 7.9c-7.81 5.16-12.99 11.18-19.53 17.25a.19.19 0 0 0 .12.29.2.2 0 0 0 .12-.02 449.62 449.62 0 0 1 19.39-16.2 49.69 49.69 0 0 1 20.42-9.1c.12-.01.1-.14 0-.12Zm-5.72-13.06c-8.09 2.2-16.32 4.44-23.86 8.27-8.22 4.18-14.65 11.01-20.97 17.58a354.5 354.5 0 0 0-11.12 12.1c-.15.16.07.43.24.26a465.42 465.42 0 0 1 19.85-19.77 65.92 65.92 0 0 1 21.78-13.73c4.64-1.76 9.38-3.17 14.13-4.57.06-.03.04-.17-.05-.14Zm-8.64-11.43c-7.86 1.62-14.72 3-21.68 7.2-9.2 5.58-18.11 14.98-21.22 18.32-3.46 3.68-6.77 7.53-10.05 11.3-.14.15.14.39.28.22a262.4 262.4 0 0 1 23.97-23.74 52.2 52.2 0 0 1 13.4-8.72 92.29 92.29 0 0 1 15.3-4.53s.03-.05 0-.05Z" fill="#263238"/><path d="m304.5 366.66 59.01-2.5s10.72-29.28 14.67-55.26c3.94-25.98-18.2-16.66-40.1 11.3-21.92 27.97-33.58 46.46-33.58 46.46Z" fill="#1BFF07"/><path d="M323.82 349c.4-.12.8-.15 1.26-.24a2.39 2.39 0 0 1 2.9 2.33 1.87 1.87 0 0 0 .88 1.62c.3.2.63.31.99.34.4.08.8.13 1.25.24-.4.11-.8.16-1.25.25a2.3 2.3 0 0 1-1.35-.14 2.51 2.51 0 0 1-1.5-2.28 1.83 1.83 0 0 0-.92-1.57 2.2 2.2 0 0 0-1-.3c-.46-.08-.86-.13-1.26-.25Zm41.52-35.87c.36.03.71.14 1.02.32a1.88 1.88 0 0 1 .92 1.57 2.5 2.5 0 0 0 1.5 2.28c.43.18.9.22 1.35.13.4-.08.8-.13 1.25-.24-.4-.11-.8-.16-1.25-.24a2.1 2.1 0 0 1-1-.34 1.9 1.9 0 0 1-.86-1.62 2.52 2.52 0 0 0-1.58-2.25c-.43-.15-.9-.18-1.35-.08-.4.07-.8.12-1.19.24.4.1.8.16 1.2.23Zm1.51 23.02c-.27.24-.6.4-.94.5a1.83 1.83 0 0 1-1.75-.46 2.51 2.51 0 0 0-2.68-.57c-.43.19-.79.49-1.05.87-.22.34-.47.65-.67 1.02.36-.2.67-.45 1.01-.68.28-.22.6-.38.94-.47a1.9 1.9 0 0 1 1.76.54 2.4 2.4 0 0 0 3 .36c.32-.2.58-.46.77-.77.23-.34.48-.67.68-1.03-.4.21-.72.47-1.06.7h-.01Zm-16.05-26.84c-.27.23-.6.4-.94.5a1.89 1.89 0 0 1-1.76-.47l-.31-.27-.69.72c.12.08.23.17.33.27a2.51 2.51 0 0 0 2.7.48c.42-.2.77-.51 1.01-.9.23-.33.48-.65.68-1.01l-1 .68h-.02Zm-6.66 22.1c-.03.36-.13.71-.3 1.02a1.87 1.87 0 0 1-1.57.92 2.5 2.5 0 0 0-2.3 1.5c-.17.43-.22.9-.13 1.34.09.4.13.8.24 1.25.11-.4.16-.8.25-1.25.04-.35.15-.7.33-1a1.9 1.9 0 0 1 1.62-.85 2.52 2.52 0 0 0 2.26-1.58c.14-.43.17-.9.09-1.34-.1-.4-.14-.8-.25-1.26-.12.45-.16.85-.24 1.26Zm16.9 22.5c-.02.35-.13.7-.3 1.01a1.86 1.86 0 0 1-1.57.92 2.5 2.5 0 0 0-2.29 1.5c-.18.42-.23.89-.14 1.34.1.4.14.8.25 1.25.12-.4.17-.8.24-1.25.03-.36.15-.7.34-1a1.88 1.88 0 0 1 1.62-.85 2.51 2.51 0 0 0 2.25-1.58c.15-.43.18-.9.09-1.34-.08-.4-.13-.8-.24-1.26-.12.45-.17.85-.25 1.26Z" fill="#fff"/><path d="M365.56 351.35c-12.77-.33-25.58.23-38.35 1.05-3.62.24-7.22.56-10.82.95-.1 0-.12.17 0 .17 6.38 0 12.75-.22 19.13-.4a702.17 702.17 0 0 0 30.02-1.54c.17 0 .18-.23.02-.23Z" fill="#263238"/><path d="M321.06 461.04h150.67c1.66-3.04-23.05-135.07-73.88-172.25-11.3-8.24-31.28-2.94-36.84 5.08-27.92 40.31-39.95 167.17-39.95 167.17Z" fill="#1BFF07"/><path d="M384.98 349c.4-.12.8-.15 1.26-.24a2.39 2.39 0 0 1 2.91 2.33 1.88 1.88 0 0 0 .87 1.62c.3.2.63.31.99.34.4.08.8.13 1.25.24-.4.11-.8.16-1.25.25a2.3 2.3 0 0 1-1.35-.14 2.52 2.52 0 0 1-1.5-2.28 1.84 1.84 0 0 0-.92-1.57c-.3-.18-.65-.29-1-.3-.45-.08-.8-.13-1.26-.25Zm23.42 79.7c.35.02.7.13 1 .3a1.82 1.82 0 0 1 .92 1.56 2.52 2.52 0 0 0 1.5 2.3c.43.17.9.22 1.35.13.4-.08.8-.13 1.25-.24-.4-.11-.8-.16-1.25-.25-.35-.02-.7-.14-1-.33a1.9 1.9 0 0 1-.86-1.62 2.43 2.43 0 0 0-1.58-2.25 2.33 2.33 0 0 0-1.33-.08c-.4.07-.8.12-1.26.23.46.13.9.18 1.26.26v-.02Zm27.62-75.16c.36.02.7.12 1 .3a1.84 1.84 0 0 1 .92 1.57 2.51 2.51 0 0 0 1.5 2.29c.43.18.9.23 1.35.14.4-.1.8-.14 1.26-.25-.4-.12-.8-.17-1.26-.24-.35-.03-.7-.15-.99-.34a1.87 1.87 0 0 1-.87-1.62 2.42 2.42 0 0 0-1.85-2.33 2.4 2.4 0 0 0-1.06 0c-.4.08-.8.12-1.25.23.47.13.89.18 1.28.26h-.03Zm-70.68-40.4c.36.02.7.13 1.02.3a1.87 1.87 0 0 1 .92 1.58 2.5 2.5 0 0 0 1.5 2.28c.43.18.9.22 1.35.13.4-.08.8-.13 1.25-.24-.4-.11-.8-.16-1.25-.24a2.1 2.1 0 0 1-1-.34 1.92 1.92 0 0 1-.86-1.62 2.52 2.52 0 0 0-1.58-2.25c-.44-.15-.9-.18-1.35-.08-.4.07-.8.12-1.19.24.4.1.8.16 1.2.23Zm43.51-.91c.36.02.7.13 1.02.3a1.87 1.87 0 0 1 .91 1.57 2.51 2.51 0 0 0 1.51 2.3c.43.17.9.21 1.34.13.4-.1.8-.14 1.2-.24-.4-.12-.8-.17-1.2-.25-.35-.04-.7-.15-1-.33a1.9 1.9 0 0 1-.85-1.62 2.52 2.52 0 0 0-1.59-2.26 2.5 2.5 0 0 0-1.34-.09c-.4.09-.8.14-1.25.25.43.1.86.15 1.26.24h-.01Zm-54.18 70.32c.36.02.7.13 1.02.3a1.87 1.87 0 0 1 .9 1.57 2.5 2.5 0 0 0 1.5 2.3c.44.17.9.21 1.35.12.4-.07.8-.12 1.26-.24-.4-.1-.8-.16-1.26-.25a2.2 2.2 0 0 1-.99-.32 1.9 1.9 0 0 1-.87-1.62 2.42 2.42 0 0 0-2.9-2.34c-.41.08-.81.13-1.26.24.46.06.86.11 1.26.19v.05Zm47.44 72.83c.35.02.7.12 1.01.3a1.9 1.9 0 0 1 .92 1.57 2.51 2.51 0 0 0 1.48 2.25c.43.17.9.21 1.35.12.4-.09.8-.14 1.25-.25-.4-.11-.8-.15-1.25-.24a2.1 2.1 0 0 1-1-.34 1.88 1.88 0 0 1-.86-1.6 2.41 2.41 0 0 0-2.93-2.35c-.4.09-.79.14-1.25.25.5.07.93.12 1.29.21l-.01.08Zm-23.36-39.12c.36.02.71.13 1.02.3a1.81 1.81 0 0 1 .9 1.57 2.5 2.5 0 0 0 1.51 2.29c.43.18.9.23 1.34.14.4-.1.8-.14 1.26-.25-.4-.12-.8-.17-1.25-.24a2.2 2.2 0 0 1-1-.34 1.84 1.84 0 0 1-.86-1.67 2.42 2.42 0 0 0-1.87-2.33 2.4 2.4 0 0 0-1.06 0c-.4.07-.8.12-1.25.23.47.09.87.14 1.28.23l-.02.07Zm-53.49 40.1a2.34 2.34 0 0 1-.99-.34 1.85 1.85 0 0 1-.85-1.62 2.52 2.52 0 0 0-1.43-2.17c0 .32-.08.62-.1.92a1.74 1.74 0 0 1 .52 1.26 2.5 2.5 0 0 0 1.51 2.29c.43.18.9.22 1.34.13.4-.08.8-.13 1.26-.25-.44-.17-.84-.22-1.24-.3l-.02.08Zm10.28-32.99c.35.02.7.12 1.01.3a1.86 1.86 0 0 1 .92 1.57 2.51 2.51 0 0 0 1.5 2.29c.43.18.9.23 1.35.13.4-.08.79-.13 1.2-.25-.41-.11-.8-.16-1.2-.24-.36-.02-.7-.14-1-.33a1.85 1.85 0 0 1-.86-1.62 2.52 2.52 0 0 0-1.58-2.25c-.43-.15-.9-.18-1.34-.09-.4.09-.8.13-1.26.24.46.04.93.09 1.27.18l-.01.07Zm63.1-39.84c.36.03.7.13 1.02.31a1.86 1.86 0 0 1 .92 1.57 2.51 2.51 0 0 0 1.5 2.29c.42.17.89.22 1.33.12.4-.07.8-.12 1.26-.24-.4-.11-.8-.16-1.26-.23a2.34 2.34 0 0 1-.99-.34 1.9 1.9 0 0 1-.85-1.62 2.52 2.52 0 0 0-1.58-2.25c-.44-.15-.9-.18-1.35-.09-.4.08-.8.13-1.25.24.46.04.86.09 1.26.16v.08Zm55.25 53.57c.35.02.7.12 1 .3a1.86 1.86 0 0 1 .92 1.56 2.52 2.52 0 0 0 1.5 2.3c.43.17.9.22 1.35.13.4-.09.8-.14 1.26-.25-.4-.12-.8-.15-1.26-.24-.35-.03-.7-.15-1-.34a1.86 1.86 0 0 1-.86-1.6 2.4 2.4 0 0 0-2.91-2.35c-.4.08-.8.13-1.26.25.5.03.9.03 1.3.16l-.04.08Zm-21.95-32.65c.36.02.7.12 1.02.3a1.88 1.88 0 0 1 .91 1.57 2.51 2.51 0 0 0 1.51 2.3c.43.17.9.21 1.35.12.4-.09.8-.12 1.25-.24-.4-.11-.8-.16-1.25-.25-.36-.02-.7-.13-1-.32a1.9 1.9 0 0 1-.86-1.63 2.5 2.5 0 0 0-1.59-2.24c-.43-.16-.9-.2-1.34-.1-.4.09-.79.14-1.2.25.45.04.84.04 1.24.11l-.04.13Zm-65.12-68.17c-.27.23-.59.4-.94.49a1.8 1.8 0 0 1-1.74-.46 2.5 2.5 0 0 0-2.69-.56c-.42.18-.78.48-1.04.87-.23.33-.48.65-.68 1.01.37-.2.68-.45 1.02-.68.27-.22.6-.38.94-.46a1.89 1.89 0 0 1 1.76.54 2.42 2.42 0 0 0 3.76-.41c.23-.34.48-.67.68-1.03-.37.08-.69.34-1.03.56l-.04.13Zm64.97 46.62c-.27.24-.59.4-.93.5a1.89 1.89 0 0 1-1.76-.46 2.51 2.51 0 0 0-2.67-.56c-.42.18-.79.48-1.04.86-.23.34-.48.65-.68 1.02.36-.2.68-.46 1.02-.68.27-.23.6-.39.94-.47a1.86 1.86 0 0 1 1.74.54 2.42 2.42 0 0 0 3.77-.41c.22-.34.48-.65.68-1.02-.4.18-.72.43-1.07.68Zm-40.52-87c-.27.23-.58.4-.93.5a1.8 1.8 0 0 1-1.75-.47 2.51 2.51 0 0 0-2.7-.55c-.41.18-.78.47-1.03.85-.23.35-.48.67-.68 1.03.36-.2.69-.45 1.03-.68.27-.22.58-.38.93-.46a1.9 1.9 0 0 1 1.75.53 2.4 2.4 0 0 0 3.77-.4c.23-.36.48-.67.68-1.03-.4.18-.73.42-1.07.65v.02Zm-.81 25.75c-.03.35-.14.7-.32 1a1.83 1.83 0 0 1-1.57.92 2.5 2.5 0 0 0-2.28 1.5c-.18.43-.23.9-.14 1.35.09.4.14.8.25 1.25.11-.4.16-.8.24-1.25.03-.35.15-.7.34-1a1.9 1.9 0 0 1 1.62-.86 2.39 2.39 0 0 0 2.33-2.91c-.07-.4-.12-.8-.24-1.26-.08.45-.13.86-.24 1.26Zm-9.57 70.6c-.03.35-.14.7-.32 1a1.85 1.85 0 0 1-1.57.93 2.52 2.52 0 0 0-2.28 1.5c-.17.43-.22.9-.13 1.35.08.4.13.8.24 1.25.12-.4.17-.8.25-1.25a1.99 1.99 0 0 1 1.03-1.64c.28-.15.6-.23.92-.22a2.52 2.52 0 0 0 2.25-1.59c.16-.43.19-.9.09-1.34-.08-.39-.13-.79-.24-1.2-.1.41-.14.81-.22 1.2h-.02Zm50.1-61.54h-.2a2.52 2.52 0 0 0-2.3 1.51c-.17.43-.22.9-.13 1.34.08.4.13.8.24 1.26.11-.4.16-.8.25-1.26.03-.35.14-.69.33-.99a1.92 1.92 0 0 1 1.62-.86c.22 0 .44-.04.65-.12l-.46-.88Zm-.36 114.07c-.01.36-.12.7-.3 1.02a1.87 1.87 0 0 1-1.57.91 2.5 2.5 0 0 0-2.28 1.51c-.18.42-.22.9-.14 1.34.09.4.14.8.25 1.26.12-.39.17-.8.24-1.26.03-.35.15-.7.34-.99a1.85 1.85 0 0 1 1.62-.87 2.52 2.52 0 0 0 2.25-1.58c.15-.43.18-.9.08-1.34-.07-.4-.12-.8-.23-1.26-.1.46-.14.9-.25 1.26Zm21.56-64.04v.1a1.84 1.84 0 0 1-1.57.92 2.5 2.5 0 0 0-2.28 1.5c-.18.43-.23.9-.14 1.35.09.4.14.8.25 1.25.12-.4.17-.8.24-1.25.03-.36.15-.7.34-1a1.86 1.86 0 0 1 1.62-.86 2.51 2.51 0 0 0 1.93-1l-.39-1.01Zm-110.2 14.04c-.02.35-.13.7-.3 1a1.87 1.87 0 0 1-1.57.92 2.5 2.5 0 0 0-2.3 1.5c-.17.43-.21.9-.13 1.35.1.4.13.8.24 1.26.12-.4.17-.8.25-1.26.04-.35.15-.7.33-1a1.9 1.9 0 0 1 1.62-.86 2.5 2.5 0 0 0 2.26-1.58c.15-.43.18-.89.09-1.33-.09-.4-.14-.8-.25-1.26-.12.46-.15.86-.24 1.26Zm2.65-63.27-.64 2.1a2.3 2.3 0 0 0 .64-2.1Zm22.6-41.28c-.03.36-.13.7-.31 1.02a1.85 1.85 0 0 1-1.57.92 2.51 2.51 0 0 0-2.29 1.5c-.17.43-.22.9-.14 1.34.09.4.14.8.25 1.26.12-.4.17-.8.24-1.25.03-.36.15-.7.34-1a1.92 1.92 0 0 1 1.62-.86 2.51 2.51 0 0 0 2.25-1.59c.15-.43.18-.9.09-1.34-.08-.39-.13-.79-.24-1.2-.1.41-.15.81-.23 1.2h-.01Zm-6.22 63.68c-.01.35-.12.7-.3 1.01a1.87 1.87 0 0 1-1.57.92 2.51 2.51 0 0 0-2.28 1.5c-.18.42-.23.89-.14 1.34.09.4.14.8.25 1.25.11-.4.16-.8.24-1.25.03-.36.15-.7.34-1a1.87 1.87 0 0 1 1.62-.85 2.51 2.51 0 0 0 2.25-1.58c.15-.43.18-.9.08-1.34-.07-.4-.12-.8-.24-1.26-.1.45-.15.85-.23 1.26h-.02Zm55.72 8.56c-.03.35-.13.7-.3 1a1.86 1.86 0 0 1-1.57.92 2.52 2.52 0 0 0-2.3 1.5c-.17.43-.22.9-.13 1.35.09.4.13.8.24 1.26.11-.4.16-.8.25-1.26.03-.35.15-.69.33-1a1.9 1.9 0 0 1 1.62-.86 2.51 2.51 0 0 0 2.26-1.58c.14-.43.17-.89.09-1.33-.1-.4-.14-.8-.26-1.26-.15.46-.15.86-.22 1.26h-.01Zm-51.49 71.5c-.02.35-.13.7-.3 1a1.84 1.84 0 0 1-1.58.92 2.5 2.5 0 0 0-2.28 1.5c-.18.43-.22.9-.13 1.35.08.4.13.8.24 1.25.11-.4.16-.8.24-1.25.03-.35.15-.7.34-1a1.9 1.9 0 0 1 1.62-.86 2.4 2.4 0 0 0 2.33-2.91c-.07-.4-.12-.8-.24-1.26-.15.42-.15.86-.22 1.26h-.01Zm43.21-93.6c.27-.24.59-.4.93-.5a1.89 1.89 0 0 1 1.76.46 2.51 2.51 0 0 0 2.67.57 2.4 2.4 0 0 0 1.05-.87c.22-.34.47-.65.67-1.02-.36.2-.68.46-1.01.68-.28.23-.6.39-.95.47a1.87 1.87 0 0 1-1.74-.54 2.42 2.42 0 0 0-3.77.41c-.22.34-.47.65-.68 1.02.42-.2.73-.45 1.08-.68Zm-32.5 29.43c.26-.23.59-.4.94-.49a1.85 1.85 0 0 1 1.75.45 2.51 2.51 0 0 0 2.68.57c.42-.18.78-.48 1.04-.87.23-.33.48-.65.68-1.01-.37.2-.68.45-1.02.68-.27.22-.6.38-.94.46a1.9 1.9 0 0 1-1.76-.54 2.4 2.4 0 0 0-3-.35c-.31.2-.57.45-.77.76-.22.34-.47.67-.67 1.03.42-.15.74-.46 1.08-.69h-.02Zm-22.02 43.37c.27-.23.59-.4.93-.5a1.87 1.87 0 0 1 1.76.47 2.51 2.51 0 0 0 2.69.55c.42-.18.78-.48 1.04-.86.22-.33.48-.66.68-1.02-.37.2-.68.45-1.03.67a2 2 0 0 1-.93.47 1.85 1.85 0 0 1-1.76-.53 2.5 2.5 0 0 0-2.71-.48c-.42.2-.76.5-1 .9-.23.33-.48.65-.69 1.01.38-.2.7-.45 1.03-.68Zm9.53 45.07c.27-.23.59-.4.93-.49a1.85 1.85 0 0 1 1.76.45 2.52 2.52 0 0 0 2.69.57c.42-.19.78-.48 1.04-.87.23-.34.48-.65.68-1.02-.37.2-.68.46-1.03.68-.27.23-.59.39-.93.47a1.9 1.9 0 0 1-1.76-.54 2.4 2.4 0 0 0-3-.36c-.31.2-.57.46-.77.77-.22.34-.47.67-.68 1.02.43-.22.73-.47 1.07-.68Zm42.6-49.51c.27-.24.59-.4.93-.5a1.87 1.87 0 0 1 1.76.46 2.51 2.51 0 0 0 2.69.55c.42-.17.78-.47 1.03-.85.22-.34.48-.67.69-1.03-.37.21-.7.45-1.03.68a2 2 0 0 1-.94.46 1.84 1.84 0 0 1-1.75-.52 2.51 2.51 0 0 0-2.7-.48c-.43.2-.78.5-1.03.89-.22.34-.46.65-.67 1.02.36-.22.69-.47 1.02-.7v.02Zm29.32 17.94c.27-.23.6-.4.93-.5a1.89 1.89 0 0 1 1.76.46 2.5 2.5 0 0 0 2.69.56c.42-.18.78-.48 1.04-.86.23-.34.48-.65.68-1.01-.37.2-.68.45-1.03.67-.27.23-.59.39-.93.47a1.87 1.87 0 0 1-1.76-.54 2.42 2.42 0 0 0-3.76.41c-.23.34-.48.66-.68 1.02.4-.21.73-.5 1.06-.69v.01Zm-49.32 13.61c.27-.23.59-.4.93-.5a1.87 1.87 0 0 1 1.76.47 2.51 2.51 0 0 0 2.69.55c.42-.18.78-.48 1.04-.86.23-.33.46-.66.68-1.02-.37.2-.7.46-1.03.69-.27.22-.6.38-.94.46a1.86 1.86 0 0 1-1.75-.54 2.5 2.5 0 0 0-2.71-.48c-.41.2-.76.51-1 .9-.23.33-.48.65-.7 1.01.4-.2.7-.45 1.03-.68Zm63.61 17.96c.27-.23.59-.4.93-.49a1.85 1.85 0 0 1 1.76.45 2.51 2.51 0 0 0 2.69.57c.42-.19.78-.48 1.04-.87.22-.34.48-.65.68-1.02-.37.2-.68.46-1.03.68-.27.23-.59.39-.93.47a1.9 1.9 0 0 1-1.76-.54 2.4 2.4 0 0 0-3-.36c-.31.2-.57.46-.77.77-.22.34-.47.67-.68 1.02.42-.22.73-.47 1.07-.68Zm11.3-48.77a1.8 1.8 0 0 1-.79-.48 2.4 2.4 0 0 0-3-.35c-.31.2-.57.46-.76.77-.23.34-.48.65-.68 1.01.36-.2.68-.45 1.01-.67.28-.24.6-.4.93-.5a1.88 1.88 0 0 1 1.76.46 2.5 2.5 0 0 0 1.75.74l-.22-.98Zm-120.35 37.03c.27-.23.59-.4.93-.5a1.89 1.89 0 0 1 1.76.46 2.5 2.5 0 0 0 2.69.57c.42-.18.78-.49 1.04-.87.22-.34.48-.65.68-1.02-.37.2-.68.46-1.03.68-.27.23-.59.39-.93.47a1.88 1.88 0 0 1-1.76-.54 2.42 2.42 0 0 0-3.77.41c-.22.34-.47.67-.67 1.02.46-.24.77-.47 1.11-.7l-.05.02Zm-3.63-75.65c.27-.25.59-.42.93-.5a1.83 1.83 0 0 1 1.76.46 2.52 2.52 0 0 0 2.69.55c.42-.18.78-.47 1.03-.85.22-.36.47-.67.69-1.03-.37.2-.7.45-1.03.67-.27.24-.6.4-.94.47a1.85 1.85 0 0 1-1.75-.53 2.52 2.52 0 0 0-2.71-.47c-.42.19-.77.5-1.02.87-.22.36-.46.67-.67 1.03.4-.21.73-.46 1.07-.69l-.05.02Z" fill="#fff"/><path d="M345 329a995.56 995.56 0 0 0-4.01 15.06c.16-2.2.4-4.38.69-6.57 0-.12-.18-.18-.22 0a47.65 47.65 0 0 0-.89 8.23 573.11 573.11 0 0 0-4.37 18.27 639.15 639.15 0 0 0-6.78 35.37c-1.07 6.7-1.9 13.41-3.04 20.1 0 .12.18.17.2 0 1.05-5.92 2.44-11.8 3.77-17.67 1.33-5.88 2.51-11.68 3.77-17.52 2.43-11.77 5.02-23.5 7.43-35.25 1.37-6.63 2.64-13.27 4-19.89.01-.03.02-.07.01-.1a.28.28 0 0 0-.21-.24.29.29 0 0 0-.35.2Z" fill="#263238"/><path d="M339.11 250.78c1.67 9.14-3.47 17.74-11.5 19.21-8.02 1.47-15.87-4.76-17.58-13.9-1.7-9.14 3.47-17.76 11.5-19.21 8.02-1.46 15.91 4.76 17.58 13.9Z" fill="#455A64"/><path d="M343.92 250.49c1.86 10.17-3.87 19.74-12.78 21.34-8.91 1.61-17.67-5.28-19.52-15.45-1.86-10.17 3.86-19.74 12.78-21.35 8.91-1.6 17.66 5.29 19.52 15.46Z" fill="#C7C7C7"/><path d="M369.37 322.26c9.1 0 20.66-16.77 23.86-28.88.21-.83-9.9-29.3-11.3-35.16-.29-1.25-34.52 17.8-34.52 17.8s6.58 11.4 9 21.6c.22.92 4.17 24.68 12.96 24.64Z" fill="#F8D197"/><path d="M360.63 299.85c-1.18.33-2.4.55-3.62.66a96.4 96.4 0 0 1-.37-1.84v-.16c0-.18-.06-.37-.11-.56v-.26a61.03 61.03 0 0 0-2.06-6.73 106.7 106.7 0 0 0-6.09-13.35l-.8-1.48.9-.51 1.26-.67.8-.44 1-.55.9-.5.18-.1 1.26-.66.28-.15 1.19-.65.63-.34 1.93-1.06 1.48-.8 1.26-.68 4.3-2.3 1.37-.76 4.96-2.61 1.07-.56.53-.44.84-.44 1.8-.91 1.11-.55a52.3 52.3 0 0 1 1.52-.75l.7-.32c.64-.31 1.25-.57 1.67-.75l.3-.13c.43 9.94-.4 36.05-20.19 41.35Z" fill="#263238"/><path d="M371.7 214.22c8.1 11.42 13.62 50.32 7.32 61.53-9.14 16.23-30.2 24.5-45.52 12.12-14.84-12-21.13-62.78-13.52-73.63 11.2-15.92 39.74-16.85 51.72-.02Z" fill="#F8D197"/><path d="M342.74 248.54c0-.11.22.09.23.2.3 2.63 1.1 5.6 3.59 6.12.07 0 .09.15 0 .15-3.01.05-4.02-3.9-3.82-6.47Z" fill="#263238"/><path d="M344.61 245.5c4.17-.94 5.74 7.53 1.87 8.33-3.86.8-5.36-7.55-1.87-8.34Zm-16.23 6.16c0-.1-.18.15-.17.26.58 2.59.8 5.64-1.4 6.94-.06 0 0 .18 0 .15 2.85-.94 2.52-5 1.57-7.35Z" fill="#263238"/><path d="M325.55 249.37c-4.24.47-3.01 8.92.93 8.49 3.94-.43 2.63-8.88-.93-8.49Zm21.66-8.37a28.9 28.9 0 0 1-3.46-.53 5.62 5.62 0 0 1-3.44-1.26 1.84 1.84 0 0 1-.12-2.2 4.5 4.5 0 0 1 4.36-1.26 6.6 6.6 0 0 1 4.25 2.1 1.93 1.93 0 0 1-1.59 3.16Zm-25.7 4.74a33.2 33.2 0 0 0 3.18-1.48 5.74 5.74 0 0 0 2.95-2.15 1.81 1.81 0 0 0-.52-2.14 4.47 4.47 0 0 0-4.53 0 6.49 6.49 0 0 0-3.5 3.21 1.93 1.93 0 0 0 .38 2.07 1.92 1.92 0 0 0 2.04.5Zm28.77 26.37c-.5.73-.97 1.68-1.9 1.94a6.97 6.97 0 0 1-2.99-.13.1.1 0 0 0-.05.04.09.09 0 0 0 0 .06 3.54 3.54 0 0 0 3.6.84 2.82 2.82 0 0 0 1.61-2.67c.01-.17-.2-.18-.27-.08Z" fill="#263238"/><path d="M346.1 264.87a9.02 9.02 0 0 1-5.2 5.02c-1 .4-2.06.65-3.14.74-.21.02-.42.02-.63 0h-.58a.67.67 0 0 1-.64-.48v-.49c-.43-2-.8-5.02-.8-5.02-.67.5-4.08 2.88-4.22 1.82-1.1-8.79-2.34-18.5-1.58-27.46a.25.25 0 0 1 .4-.14c.04.03.08.08.09.14 1.4 8.39 1.25 16.95 2.57 25.39a15.58 15.58 0 0 1 3.94-2.05c.3 0 .62 5.97.88 6.85v.1c3.44-.2 5.8-1.7 8.64-4.57.14-.26.38-.12.27.15Z" fill="#263238"/><path d="M338.75 269.39a10.74 10.74 0 0 0 4.8 2.5c1 .2 2.01.06 2.92-.36 1.97-.92 1.67-2.85.98-4.4-.37-.83-.84-1.61-1.4-2.33a13.82 13.82 0 0 1-7.3 4.59Z" fill="#263238"/><path d="M343.56 271.86c.98.18 2 .06 2.91-.36 1.97-.93 1.67-2.85.98-4.41-2.2.65-4.1 2.57-3.9 4.77Z" fill="#FF99BA"/><path opacity=".2" d="M370.24 230.56c2.59 3.28 8.24 11.14 10.16 11.24-1.99-12.67-5.21-23.73-10.26-29.62a26.29 26.29 0 0 0-7.42-6c.73 3.35 4.77 21.02 7.52 24.38Z" fill="#263238"/><path d="M332.5 222.86a12.55 12.55 0 0 0 11.9 2.95 12.86 12.86 0 0 0 9-8.86.1.1 0 0 1 .14 0 .1.1 0 0 1 .03.08 12.74 12.74 0 0 1-8.88 9.65 12.97 12.97 0 0 1-12.4-3.77.14.14 0 0 1 .03-.04.14.14 0 0 1 .06-.03h.06l.06.02Zm9.46-32.36c7.27-.65 14.38 2.62 17.58 7.26a14.1 14.1 0 0 1 2.39 9c0 .12-.27.12-.27 0a15.5 15.5 0 0 0-8.79-13.12 19.96 19.96 0 0 0-17.8-.12 12.55 12.55 0 0 0-6.14 6.18c-.11.27-.68.16-.59-.12 1.42-4.76 7.05-8.47 13.62-9.08Zm-40.34 20.47a16.07 16.07 0 0 1 5.85-9.36c4.13-3.26 9.22-3.42 14.25-3.47.14 0 .15.21 0 .21-4.29.07-8.65.38-12.33 2.82a15.71 15.71 0 0 0-6.41 8.46 15.44 15.44 0 0 0 8.48 18.32 15.64 15.64 0 0 0 12.42-.14c.15-.06.3.15.14.23a15.75 15.75 0 0 1-22.41-17.07h.01Z" fill="#263238"/><path d="M375.75 222.54s5.36-13.81-1.25-20.6c-3.77-3.86-14.5-2.04-14.5-2.04a19.64 19.64 0 0 0-13.5-6.8c-9.28-1.03-19.43 5.53-19.43 5.53s-9.18-3.92-16.7 1.63c-10.47 7.74-7.05 24.68 4.89 28.88 8.4 2.93 18.34-5.36 18.34-5.36 1.06 0 12.42 5.16 19.34-5.25 0 0 7.2 5.03 12.55.3a9.52 9.52 0 0 0 10.26 3.7Z" fill="#806A49"/><path d="M348.2 259.98a11.3 11.3 0 0 1-12.01-10.6 11.31 11.31 0 1 1 12 10.6Zm-10.48-10.7a9.8 9.8 0 1 0 19.57-1.23 9.8 9.8 0 0 0-19.57 1.22Zm-13.02 15.23c-4.56.9-9.25-3.36-10.45-9.49-.6-2.76-.3-5.64.82-8.24a7.05 7.05 0 0 1 11.86-2.32 13.54 13.54 0 0 1 3.87 7.31c1.13 5.8-1.25 11.3-5.38 12.56-.24.07-.48.14-.72.19Zm-8.25-17.08c-1 2.3-1.25 4.85-.72 7.3 1.05 5.3 4.94 9.03 8.68 8.3 3.74-.72 5.94-5.65 4.91-10.96a12.12 12.12 0 0 0-3.42-6.5 6.05 6.05 0 0 0-5.27-1.8c-.19.03-.37.07-.55.14a6.29 6.29 0 0 0-3.63 3.52Z" fill="#1BFF07"/><path d="m336.82 250.58.74-1.32c-1.98-1.1-6.28-2.24-8.4 1.25l1.26.8c1.95-3.12 6.22-.82 6.4-.73Zm50.1-6.85 1.19-.94c-.44-.55-4.4-5.4-7.82-5.28-3.2.1-22.76 5.87-23.59 6.12l.43 1.46c5.61-1.67 20.73-5.99 23.2-6.08 2.27-.06 5.52 3.4 6.59 4.72Z" fill="#1BFF07"/><path d="M373.82 246.73s4.63-14.51 10.97-13.26c6.34 1.26 5.45 20.56-.17 24.9a6.77 6.77 0 0 1-9.75-.77l-1.05-10.87Z" fill="#F8D197"/><path d="M384.4 239c.1 0 .17.1.1.16-3.91 3.2-4.97 8.06-5.28 12.86.81-2.06 2.33-3.53 5.02-2.64.15 0 .09.27 0 .28a4.17 4.17 0 0 0-3.95 2.75 19.81 19.81 0 0 0-1 4.2c-.09.46-.86.47-.85 0v-.12c-1.9-5.69.04-15.02 5.96-17.5Z" fill="#263238"/><path d="M380.82 235.73s-.9-20.32-8.04-30.78c-7.96-11.66-29.94-19.45-45.66-6.28 0 0 22.83-5.94 37.78 8.1 6.87 6.45 9.26 30.28 9.26 30.28l6.66-1.32Z" fill="#C7C7C7"/><path d="M381.3 265.01c9.02-.91 15.49-10 14.44-20.28-1.04-10.29-9.2-17.89-18.22-16.97-9.03.91-15.5 10-14.45 20.28 1.04 10.29 9.2 17.89 18.22 16.97Z" fill="#C7C7C7"/><path d="M367.78 246.96c.94 9.25 8.27 16.09 16.39 15.26 8.1-.83 13.92-9 12.99-18.24-.93-9.24-8.27-16.07-16.4-15.25-8.12.81-13.92 8.99-12.98 18.23Z" fill="#455A64"/><path d="M417.19 301.83c24.33 26.07 82.23 123.89 63.46 141.9-18.77 18-122.93-6.28-152.18-20.18-8.72-4.15 24.35-58.42 34.59-59.69 8.51-1.05 52.06 18.84 53.31 16.33 1.43-2.83-8.46-21-18.93-58.83-12.08-43.56 9-31.04 19.75-19.53Zm-97.38 44.54c-21.14-2.94-27.03-.45-43.55-12.42-10.85-7.84-20.52-4.3-14.34 8.19 10.13 20.4 36.63 29.94 46.76 30.6l11.13-26.37Z" fill="#F8D197"/><path d="M376 366.74s-23.76-13.2-45.99-18.57c-15.38-3.7-49.72-8.06-82.58 25.83-7.8 8.05-13.21 25.02 4.3 16.52 12.42-6.05 18.48-13.63 26.36-15.83 0 0-4.3 22.42 4.04 29.9a207.07 207.07 0 0 0 23.25 18.04 44.85 44.85 0 0 0 3.76-4.04s8.48 6.27 24.41 4.74l42.45-56.6Z" fill="#F8D197"/><path d="M314.77 346.98c-7.35 3.82-22.8 12.21-33.04 23.46-11.37 12.5-29.93 39.64-20.63 47.96 6.83 6.09 14.83-3.66 14.83-3.66s-5.3 12.84 2.07 17c6.72 3.76 12.45-4.13 12.45-4.13s-1.87 8.34 5.3 10.74c8.62 2.89 11.14-15.07 22.4-19.7 2.53-1.03-3.38-71.67-3.38-71.67Z" fill="#F8D197"/><path d="M296.94 380.26c-6.28 4.75-17.92 19.19-21.12 34.14-.08.34.14.58.28.3a165.45 165.45 0 0 1 20.96-34.31c.05-.09-.05-.18-.12-.13Zm12.29 11.86c-5.02 4.65-16.32 20.09-19.06 35.34-.06.34.18.57.3.27a178.37 178.37 0 0 1 18.84-35.51c.1-.08-.02-.15-.08-.1Zm-31.15-17.57c-6.9 2.03-11.38 5.41-17.2 9.45a94.65 94.65 0 0 1-8.88 5.63c-2.81 1.52-6.94 3.77-9.94 1.43-1.66-1.32-1.64-3.77-1.26-5.63.4-2.14 1.25-4.17 2.51-5.96.06-.09-.09-.2-.15-.11a20.52 20.52 0 0 0-2.85 5.1 9.15 9.15 0 0 0-.63 5.38c1.02 3.77 5.5 4.3 8.67 3.25 1.9-.69 3.71-1.56 5.43-2.62 1.67-.97 3.3-2 4.89-3.08 3.27-2.22 6.43-4.62 9.68-6.86a87.5 87.5 0 0 1 9.85-5.74.14.14 0 0 0 .06-.18.14.14 0 0 0-.08-.07.13.13 0 0 0-.1 0Z" fill="#263238"/><path d="M263.64 398.8c1.78-3.92 11.44-20.3 14.58-24.09a.11.11 0 0 0 .01-.06.1.1 0 0 0-.03-.06.1.1 0 0 0-.06-.03.1.1 0 0 0-.06.01c-5.38 5.1-14.01 18.63-16.02 22.97s-4.29 9.76-4.29 14.53c0 7.2 4.78 8.56 6.55 8.91 2.1.39 4.26.04 6.12-.99a19 19 0 0 0 5.57-5.22c.07-.1-.07-.24-.15-.14-2.51 2.84-6.65 5.64-10.55 5.12a6.53 6.53 0 0 1-4.46-2.4 8.5 8.5 0 0 1-1.15-5.8 39.3 39.3 0 0 1 3.94-12.74Z" fill="#263238"/><path d="M290.17 427.46c-1 .86-3.06 3.85-6.34 4.49a7.42 7.42 0 0 1-6.76-1.51 9.35 9.35 0 0 1-2.6-6.56c.28-3.05.78-6.08 1.51-9.06 0-.14-.14-.2-.17-.06a33.68 33.68 0 0 0-2.18 9.74 9.83 9.83 0 0 0 2.77 7.18 7.37 7.37 0 0 0 7.53 1.57c1.25-.48 5.34-3.07 6.5-5.64.04-.06-.21-.19-.26-.15Zm27.31-10.1c-1.1.74-2.13 1.6-3.05 2.57-1.02.98-2 2-2.94 3.03a40.77 40.77 0 0 0-5.02 6.81c-1.46 2.45-2.8 5.18-5.18 6.87a6.73 6.73 0 0 1-7.88.2 6.64 6.64 0 0 1-2.51-3.65 12.8 12.8 0 0 1-.45-4.92.1.1 0 0 0-.1-.1.1.1 0 0 0-.08.03 23.2 23.2 0 0 0-.38 4.53 7.75 7.75 0 0 0 1.41 3.76 7.54 7.54 0 0 0 7.36 2.75c3.01-.55 5.2-2.81 6.85-5.26 1.81-2.72 3.32-5.63 5.26-8.27 1.02-1.4 2.03-2.8 3.14-4.12 1.12-1.32 2.51-2.6 3.64-4.03.18-.12.08-.28-.07-.2Z" fill="#263238"/><path d="M325.9 423.5a62.24 62.24 0 0 1-11.6-2.4c-.12 0-.29.3-.17.36 1.83.84 3.74 1.47 5.71 1.89 1.98.42 4.02.55 6.04.37.1-.01.15-.2.02-.21Z" fill="#263238"/><path d="m467.05 363.31-59.08-1.96s-11-29.15-15.18-55.1c-4.18-25.94 17.06-18.01 39.24 9.76 22.17 27.78 35.02 47.3 35.02 47.3Z" fill="#1BFF07"/><path d="M252.94 465.35h9.02v-5.9h-9.02v5.9Zm-11.69-.39h9.02v-5.9h-9.02v5.9Zm-11.7-.39h9.01v-5.89h-9.01v5.89Zm-11.69-.39h9.01v-5.89h-9.01v5.89Zm-11.7-.39h9.01v-5.89h-9.01v5.89Zm-11.69-.39h9.01v-5.89h-9.01v5.9Zm-11.7-.39h9.01v-5.89h-9.01v5.9Zm-11.69-.39h9.01v-5.89h-9.01v5.9Zm-11.71-.39h9.02v-5.89h-9.02v5.9Z" fill="#455A64"/><path d="M157.16 468.74h107v-7.16l-107-2.99v10.15Z" fill="#37474F"/><path d="M52.73 440.49h176.64l-28.08-131.52h-176.66l28.1 131.51Z" fill="#455A64"/><path d="M46.2 440.49h176.65l-28.1-131.52h-176.64l28.08 131.51Z" fill="#37474F"/><path d="M105.2 367.1a13.28 13.28 0 0 0 12.66 10.93 9.1 9.1 0 0 0 9.2-10.93 13.32 13.32 0 0 0-12.66-10.92 9.09 9.09 0 0 0-9.2 10.92Z" fill="#263238"/><path d="M96.15 474.83h86.88v-6.75l-86.88-2.8v9.55Z" fill="#455A64"/><path d="M72.54 474.81h46.64l28.09-73.68h-46.65l-28.08 73.69Z" fill="#455A64"/><path d="M64.85 474.81h46.65l28.1-73.68h-46.65l-28.1 73.69Z" fill="#263238"/><path d="M267.47 476.62h89.57c7.65 0-3.41-21.76-31.31-30.13-27.9-8.38-67.11 21.97-58.26 30.13Z" fill="#37474F"/><path d="M302.63 476.62a54.3 54.3 0 0 0-2.18-6.98 41.8 41.8 0 0 0-3.17-6.48 30.63 30.63 0 0 0-4.35-5.72l-1.25-1.26-1.4-1.17c-.88-.85-1.97-1.4-2.93-2.18 2.3.93 4.43 2.26 6.27 3.93a24.49 24.49 0 0 1 4.75 5.77 31.55 31.55 0 0 1 3.03 6.82 28.9 28.9 0 0 1 1.23 7.27Z" fill="#263238"/><path d="M292 455.92c-1.25.65-2.44 1.25-3.65 1.97-1.2.72-2.42 1.34-3.6 2.05a97.51 97.51 0 0 0-6.94 4.45 42.56 42.56 0 0 0-6.27 5.26c-.95.98-1.8 2.05-2.51 3.2a11.82 11.82 0 0 0-1.61 3.77c.08-1.4.44-2.79 1.07-4.05a19.38 19.38 0 0 1 2.3-3.56 32.5 32.5 0 0 1 6.28-5.65 58.14 58.14 0 0 1 14.92-7.44h.01Z" fill="#263238"/><path d="m435.64 424.5-5.32 66.85h-36.76l-5.33-66.85h47.41Z" fill="#1BFF07"/><path opacity=".1" d="m435.64 424.5-5.32 66.85h-36.76l-5.33-66.85h47.41Z" fill="#000"/><path d="M438.8 418.47h-54.05v9.75h54.06v-9.75Z" fill="#455A64"/><path d="M435.1 418.47h-46.64l2.72-10.95h41.2l2.73 10.95Z" fill="#37474F"/></svg>