<svg viewBox="0 0 582 717" fill="none" xmlns="http://www.w3.org/2000/svg"><path d="M777.72 439.25h-276.6v-406h276.6v406Zm-269.15-7.44h261.7v-391.12h-261.7v391.12Z" fill="#EBEBEB"/><path d="M784.47 48.3h-290.1v10.36h290.1v-10.36Zm0 11.64h-290.1v10.37h290.1v-10.37Zm0 11.66h-290.1v10.37h290.1v-10.36Zm0 11.67h-290.1v10.36h290.1v-10.36Zm0 11.65h-290.1v10.36h290.1v-10.36Zm0 11.66h-290.1v10.36h290.1v-10.36Zm0 11.66h-290.1v10.36h290.1v-10.36Zm0 11.65h-290.1v10.36h290.1v-10.36Zm0 11.66h-290.1v10.36h290.1v-10.36Z" fill="#EBEBEB"/><path d="M796 31.8h-313.18v21.67h313.18v-21.67Z" fill="#DBDBDB"/><path d="M48.09 244.59c0-1.57.2-5.72.2-7.45 0-7.57-2.7-10.97-9.75-11.16a4.96 4.96 0 0 1-5.29-4.97 4.99 4.99 0 0 1 5.3-4.98c7.04-.3 9.74-3.63 9.74-11.29 0-1.86-.2-5.92-.2-7.44 0-10.05 4.25-16.48 20.33-20a4.48 4.48 0 0 1 2.79 8.5c-10.07 3.11-11.52 6.33-11.52 13.38 0 2.06.23 5.49.23 7.66 0 8.1-3.95 12.04-10.8 14.21 6.95 2.27 10.8 6.12 10.8 14.2 0 2.2-.23 5.58-.23 7.68 0 7.05 1.45 10.27 11.52 13.37a4.48 4.48 0 0 1-2.8 8.5c-16.08-3.62-20.32-10.08-20.32-20.22Zm60.73-47.4c0 1.56-.2 5.7-.2 7.44 0 7.66 2.8 11 9.85 11.29a4.98 4.98 0 1 1 0 9.95c-7.05.22-9.86 3.72-9.86 11.16 0 1.77.2 5.92.2 7.44 0 10.16-4.23 16.6-20.3 20.11a4.47 4.47 0 0 1-2.7-8.5c9.95-3.1 11.4-6.32 11.4-13.37 0-2.09-.2-5.5-.2-7.69 0-8.07 3.94-12.01 10.79-14.19-6.96-2.29-10.8-6.12-10.8-14.21 0-2.18.21-5.58.21-7.67 0-7.05-1.45-10.26-11.4-13.37a4.47 4.47 0 0 1 2.7-8.5c16.07 3.63 20.3 10.06 20.3 20.1Zm213.81-97.33a6.08 6.08 0 0 1-4.25 10.42 6.44 6.44 0 0 1-4.44-1.73l-27.12-27.51c-.3 0-.4-.3-.49-.58a1.57 1.57 0 0 0-.3-.2 2.5 2.5 0 0 1-.27-.76.55.55 0 0 1-.3-.4c-.1-.18-.1-.48-.19-.57-.09-.1-.18-.4-.18-.49v-.67c0-.2-.11-.3-.11-.57 0-.28.1-.4.1-.49v-.68c0-.19.2-.28.2-.38 0-.09.09-.48.18-.78.1-.3.11 0 .11-.18.13-.3.29-.6.47-.88l.01-.07a.18.18 0 0 1 .19-.11c.13-.28.33-.52.58-.7l27.12-27.49a6.29 6.29 0 0 1 8.69 0 6.14 6.14 0 0 1 0 8.7l-22.88 23.06 22.88 23.06Zm24.61 3.09 23.64-56.27a5.37 5.37 0 0 1 7.05-2.8 5.22 5.22 0 0 1 2.7 6.86l-23.65 56.36a5.36 5.36 0 0 1-4.93 3.18 4.6 4.6 0 0 1-1.86-.39 5.2 5.2 0 0 1-2.95-6.94Zm80.09-22.69s0 .1-.09.1c-.2.25-.43.47-.67.68l-27.12 27.51a6.26 6.26 0 0 1-4.35 1.73 6.19 6.19 0 0 1-4.34-1.73 6.1 6.1 0 0 1 0-8.69l22.87-23.06-22.87-22.98a6.1 6.1 0 0 1 0-8.68 6.29 6.29 0 0 1 8.7 0l27.11 27.5c.24.2.47.43.67.68.1 0 .1.18.1.18.17.29.33.58.48.88 0 0 .1 0 .1.19.05.3.15.6.29.87v.97s.1.37.1.48c0 .11-.1.37-.1.48v.82c-.12.29-.22.58-.3.88 0 0-.1 0-.1.3s-.25.5-.48.89Zm-36.97 668.76c207.04 0 374.9-13.37 374.9-29.87s-167.86-29.88-374.9-29.88c-207.06 0-374.9 13.38-374.9 29.88s167.84 29.87 374.9 29.87Z" fill="#EBEBEB"/><path d="M743.86 682.99h-225.3l44.92-261.32h168.48l11.9 261.32Z" fill="#DBDBDB"/><path d="m1.1 682.99 97.32-.45 97.3-.17 194.64-.31 194.62.31 97.3.17 97.33.45-97.32.46-97.3.15-194.63.32-194.63-.32-97.3-.15-97.33-.46Z" fill="#263238"/><path d="M212.6 31.8h-184.87v117.93h184.87v-117.93Z" fill="#fff"/><path d="M213.75 150.89h-187.19v-120.26h187.2v120.26Zm-184.86-2.33h182.54v-115.59h-182.54v115.6Z" fill="#EBEBEB"/><path d="M212.6 31.8h-184.87v22.3h184.87v-22.3Z" fill="#1BFF07"/><path d="M213.75 55.28h-187.19v-24.65h187.2v24.65Zm-184.86-2.35h182.54v-19.96h-182.54v19.96Z" fill="#EBEBEB"/><path d="M48.66 43.11a5.58 5.58 0 1 1-11.16 0 5.58 5.58 0 0 1 11.16 0Z" fill="#A6A6A6"/><path d="M71.58 43.11a5.58 5.58 0 1 1-11.16 0 5.58 5.58 0 0 1 11.16 0Z" fill="#EBEBEB"/><path d="M94.59 43.11a5.58 5.58 0 1 1-11.16 0 5.58 5.58 0 0 1 11.16 0Z" fill="#fff"/><path d="M59.64 98.19a22.8 22.8 0 0 1 22.78-22.32 23.25 23.25 0 0 1 14.36 4.85 3.57 3.57 0 0 1-4.35 5.58 15.42 15.42 0 0 0-10-3.42 16.54 16.54 0 0 0-11.17 4.46 15.37 15.37 0 0 0-4.57 10.85 15.07 15.07 0 0 0 4.54 10.8c3.02 2.86 7 4.46 11.16 4.49 3.63.06 7.17-1.15 10-3.42a3.72 3.72 0 0 1 4.97.69 3.72 3.72 0 0 1-.61 4.96 23.25 23.25 0 0 1-14.36 4.86 22.71 22.71 0 0 1-22.75-22.38Zm48.44 11.57a3.24 3.24 0 0 1 4.53-.45 20.22 20.22 0 0 0 11.87 4.78 13.4 13.4 0 0 0 7.76-2.28 5.58 5.58 0 0 0 2.68-4.49 3.6 3.6 0 0 0-.56-1.99 6.13 6.13 0 0 0-1.86-1.86 24.95 24.95 0 0 0-8.5-2.92h-.13a33.32 33.32 0 0 1-8-2.42 13.28 13.28 0 0 1-5.79-4.83 9.61 9.61 0 0 1-1.43-5.1 11.55 11.55 0 0 1 4.97-9.08 18.45 18.45 0 0 1 10.73-3.29c4.92.24 9.64 1.98 13.54 4.99a3.2 3.2 0 0 1 .88 4.4 3.15 3.15 0 0 1-4.41.93c-3.18-2.12-6.21-3.98-10-3.98-2.49-.03-4.92.7-6.97 2.1a4.98 4.98 0 0 0-2.34 3.93c-.03.6.12 1.21.45 1.73.44.65 1 1.2 1.67 1.62a21.18 21.18 0 0 0 7.76 2.73h.13a37.7 37.7 0 0 1 8.57 2.6c2.52 1.1 4.67 2.9 6.2 5.18a9.89 9.89 0 0 1 1.5 5.26 12.05 12.05 0 0 1-5.35 9.64 19.38 19.38 0 0 1-11.48 3.53 26.62 26.62 0 0 1-15.9-6.21 3.27 3.27 0 0 1-.52-4.52Zm40.81 0a3.24 3.24 0 0 1 4.54-.45 20.11 20.11 0 0 0 11.84 4.78c2.77.06 5.48-.74 7.78-2.28a5.58 5.58 0 0 0 2.66-4.49 3.6 3.6 0 0 0-.56-1.99 6.05 6.05 0 0 0-1.86-1.86 25.1 25.1 0 0 0-8.5-2.92h-.13a33.73 33.73 0 0 1-8.02-2.42 13.22 13.22 0 0 1-5.76-4.83 9.62 9.62 0 0 1-1.44-5.1 11.5 11.5 0 0 1 4.97-9.08 18.45 18.45 0 0 1 10.75-3.29 24.3 24.3 0 0 1 13.55 4.99 3.2 3.2 0 0 1 .85 4.4 3.13 3.13 0 0 1-4.4.93c-3.17-2.12-6.22-3.98-10-3.98-2.48-.04-4.91.7-6.95 2.1a4.98 4.98 0 0 0-2.37 3.93c-.03.6.12 1.2.43 1.73.45.64 1.02 1.2 1.68 1.62a21.3 21.3 0 0 0 7.77 2.73h.11c2.96.51 5.84 1.39 8.58 2.6a14.5 14.5 0 0 1 6.21 5.18c.97 1.58 1.49 3.4 1.49 5.26a12.02 12.02 0 0 1-5.34 9.64 19.47 19.47 0 0 1-11.5 3.53 26.73 26.73 0 0 1-15.9-6.21 3.3 3.3 0 0 1-.48-4.52Z" fill="#EBEBEB"/><path d="M517.92 369.2h-184.86v117.93h184.86v-117.93Z" fill="#fff"/><path d="M519.1 488.3h-187.21v-120.28h187.2v120.28Zm-184.87-2.34h182.62v-115.6h-182.62v115.6Z" fill="#EBEBEB"/><path d="M517.92 369.2h-184.86v22.3h184.86v-22.3Z" fill="#1BFF07"/><path d="M519.1 392.67h-187.21v-24.65h187.2v24.65Zm-184.87-2.34h182.62v-19.96h-182.62v19.96Z" fill="#EBEBEB"/><path d="M354 380.5a5.58 5.58 0 1 1-11.15 0 5.58 5.58 0 0 1 11.16 0Z" fill="#A6A6A6"/><path d="M376.92 380.5a5.58 5.58 0 1 1-11.15 0 5.58 5.58 0 0 1 11.15 0Z" fill="#EBEBEB"/><path d="M399.84 380.5a5.58 5.58 0 1 1-11.16 0 5.58 5.58 0 0 1 11.16 0Z" fill="#fff"/><path d="M367.59 435.6a22.79 22.79 0 0 1 22.78-22.32 23.23 23.23 0 0 1 14.36 4.84 3.72 3.72 0 0 1 .62 4.96 3.72 3.72 0 0 1-4.97.7 15.53 15.53 0 0 0-10.02-3.5 16.46 16.46 0 0 0-11.17 4.48 15.11 15.11 0 0 0 0 21.62 16.44 16.44 0 0 0 11.17 4.46c3.63.06 7.17-1.15 10-3.42a3.72 3.72 0 0 1 4.97.69 3.72 3.72 0 0 1-.62 4.96 23.25 23.25 0 0 1-14.35 4.86 22.7 22.7 0 0 1-22.77-22.33Zm59.56 3.91h-8.9a3.43 3.43 0 1 1 0-6.83h8.82v-8.68a3.54 3.54 0 0 1 7.07 0v8.63h8.84a3.42 3.42 0 0 1 0 6.82h-8.84v8.73a3.53 3.53 0 1 1-7.07 0l.08-8.67Zm38.5 0h-8.81a3.43 3.43 0 1 1 0-6.83h8.81v-8.68a3.5 3.5 0 0 1 3.54-3.56 3.55 3.55 0 0 1 3.55 3.56v8.63h8.76a3.42 3.42 0 0 1 0 6.82h-8.81v8.73a3.56 3.56 0 0 1-6.07 2.52 3.48 3.48 0 0 1-1.02-2.52l.05-8.67Z" fill="#EBEBEB"/><path d="M431.7 142.61h-308.3v253.19h308.3v-253.19Z" fill="#fff"/><path d="M432.88 396.99h-310.65v-255.53h310.65v255.53Zm-308.3-2.35h305.95v-250.86h-305.95v250.86Z" fill="#EBEBEB"/><path d="M431.7 142.61h-308.3v22.3h308.3v-22.3Z" fill="#1BFF07"/><path d="M432.88 166.09h-310.65v-24.63h310.65v24.63Zm-308.3-2.35h305.95v-19.96h-305.95v19.96Z" fill="#EBEBEB"/><path d="M144.33 153.94a5.58 5.58 0 1 1-11.15 0 5.58 5.58 0 0 1 11.15 0Z" fill="#A6A6A6"/><path d="M167.25 153.94a5.58 5.58 0 1 1-11.17 0 5.58 5.58 0 0 1 11.17 0Z" fill="#EBEBEB"/><path d="M190.18 153.94a5.58 5.58 0 1 1-11.17 0 5.58 5.58 0 0 1 11.17 0Z" fill="#fff"/><path d="M159.25 209.28h-11.93v4.35h11.93v-4.35Zm145.46 0h-136.77v4.35h136.77v-4.35Z" fill="#EBEBEB"/><path d="M334.68 209.28h-22.64v4.35h22.64v-4.35Z" fill="#1BFF07"/><path d="M386.49 267.56h-22.66v4.35h22.66v-4.35Z" fill="#EBEBEB"/><path d="M378.77 209.28h-39.16v4.35h39.16v-4.35Z" fill="#A6A6A6"/><path d="M171.17 220.94h-11.92v4.35h11.92v-4.35Z" fill="#EBEBEB"/><path d="M269.31 220.94h-89.75v4.35h89.75v-4.35Zm89.14 46.62h-52.55v4.35h52.55v-4.35Zm-104.78-11.65h-85.73v4.36h85.73v-4.36Z" fill="#A6A6A6"/><path d="M239.7 232.59h-60.14v4.35h60.14v-4.35Z" fill="#1BFF07"/><path d="M350.12 244.25h-22.94v4.35h22.94v-4.35Zm-7.7-11.66h-96.04v4.35h96.04v-4.35Z" fill="#A6A6A6"/><path d="M282.58 267.56h-114.64v4.35h114.64v-4.35Zm116.62-46.62h-62.12v4.35h62.13v-4.35Z" fill="#1BFF07"/><path d="M332.15 220.94h-57.2v4.35h57.2v-4.35Zm53.39 11.65h-38.6v4.35h38.6v-4.35Zm-214.37 0h-11.92v4.35h11.92v-4.35Z" fill="#EBEBEB"/><path d="M159.25 244.25h-11.93v4.35h11.93v-4.35Z" fill="#A6A6A6"/><path d="M238.4 244.25h-70.47v4.35h70.47v-4.35Zm11.62 34.97h-70.46v4.35h70.46v-4.35Z" fill="#EBEBEB"/><path d="M364.54 290.88h-53.58v4.36h53.58v-4.36Zm-38.12-11.66h-70.67v4.35h70.67v-4.35Z" fill="#1BFF07"/><path d="M304.8 290.88h-61.51v4.36h61.52v-4.36Z" fill="#EBEBEB"/><path d="M199.97 290.88h-20.4v4.36h20.4v-4.36Z" fill="#A6A6A6"/><path d="M334.68 255.91h-76.16v4.36h76.16v-4.36Z" fill="#EBEBEB"/><path d="M388.07 255.91h-48.46v4.36h48.46v-4.36Zm-66.45-11.66h-76.06v4.35h76.06v-4.35Z" fill="#1BFF07"/><path d="M159.25 255.91h-11.93v4.36h11.93v-4.36Zm0 11.65h-11.93v4.35h11.93v-4.35Z" fill="#EBEBEB"/><path d="M171.17 279.22h-11.92v4.35h11.92v-4.35Z" fill="#A6A6A6"/><path d="M171.17 290.88h-11.92v4.36h11.92v-4.36Zm-11.92 9.75h-11.93v4.35h11.93v-4.35Zm145.46 0h-136.77v4.35h136.77v-4.35Zm-133.54 11.67h-11.92v4.35h11.92v-4.35Z" fill="#EBEBEB"/><path d="M269.31 312.3h-89.75v4.35h89.75v-4.35Zm-15.64 34.97h-85.73v4.35h85.73v-4.35Z" fill="#A6A6A6"/><path d="M239.7 323.96h-60.14v4.35h60.14v-4.35Z" fill="#1BFF07"/><path d="M342.42 323.96h-96.04v4.35h96.04v-4.35Z" fill="#A6A6A6"/><path d="M282.58 358.91h-114.64v4.35h114.64v-4.35Zm116.62-46.61h-62.12v4.35h62.13v-4.35Z" fill="#1BFF07"/><path d="M332.15 312.3h-57.2v4.35h57.2v-4.35Zm53.39 11.66h-38.6v4.35h38.6v-4.35Zm-214.37 0h-11.92v4.35h11.92v-4.35Z" fill="#EBEBEB"/><path d="M159.25 335.6h-11.93v4.35h11.93v-4.35Z" fill="#A6A6A6"/><path d="M238.4 335.6h-70.47v4.35h70.47v-4.35Zm96.28 11.67h-76.16v4.35h76.16v-4.35Z" fill="#EBEBEB"/><path d="M321.62 335.6h-76.06v4.35h76.06v-4.35Z" fill="#1BFF07"/><path d="M159.25 347.27h-11.93v4.35h11.93v-4.35Z" fill="#EBEBEB"/><path d="M154.7 197.82a1.04 1.04 0 0 1 0 1.47 1.06 1.06 0 0 1-1.48 0l-4.6-4.67a.15.15 0 0 1 0-.1v-.85a.22.22 0 0 1 .12-.11l4.6-4.67a1.06 1.06 0 0 1 1.46 0 1.04 1.04 0 0 1 0 1.47l-3.87 3.9 3.76 3.56Zm4.16.52 4.02-9.54a.9.9 0 0 1 .83-.55.9.9 0 0 1 .89.9.9.9 0 0 1-.07.34l-4.02 9.56a.92.92 0 0 1-.83.54.65.65 0 0 1-.32 0 .88.88 0 0 1-.5-1.25Zm13.58-3.85a.32.32 0 0 1-.12.11l-4.59 4.67c-.2.19-.47.3-.74.3s-.53-.11-.73-.3a1.04 1.04 0 0 1 0-1.47l3.87-3.92-3.87-3.91a1.04 1.04 0 0 1 0-1.47 1.06 1.06 0 0 1 1.47 0l4.6 4.67c.04.02.08.06.1.11.04.05.08.1.1.15v.63l-.1.43Z" fill="#1BFF07"/><path d="M466.86 107.12h-125.93v46.63h125.93v-46.63Z" fill="#455A64"/><path d="M359.1 140.1v-20.69a1.86 1.86 0 0 1 1.86-1.86 1.86 1.86 0 0 1 1.98 1.86v8.41h9.07v-8.4a1.86 1.86 0 0 1 1.86-1.87 1.86 1.86 0 0 1 1.98 1.86v20.69a1.86 1.86 0 0 1-1.98 1.86 1.86 1.86 0 0 1-1.86-1.86v-8.4h-9.07v8.4a1.86 1.86 0 0 1-1.98 1.86 1.86 1.86 0 0 1-1.86-1.86Zm39.85-18.71h-5.58v18.7a1.93 1.93 0 0 1-3.87 0v-18.7h-5.58a1.85 1.85 0 0 1-1.86-1.98 1.86 1.86 0 0 1 1.86-1.86h14.88a1.86 1.86 0 0 1 1.86 1.86 1.97 1.97 0 0 1-1.71 1.98Zm28.81-1.98v20.69a2 2 0 0 1-1.97 1.86 1.86 1.86 0 0 1-1.86-1.86v-14.75l-5.06 7.01a1.87 1.87 0 0 1-1.56.8 2.01 2.01 0 0 1-1.62-.8l-5-7.01v14.75a1.95 1.95 0 0 1-3.9 0v-20.69a1.86 1.86 0 0 1 1.87-1.86h.11a1.86 1.86 0 0 1 1.54.8l6.98 9.68 6.97-9.68a1.87 1.87 0 0 1 1.59-.8 1.99 1.99 0 0 1 1.91 1.86Zm8.49 20.69v-20.69a1.86 1.86 0 0 1 1.86-1.86 1.85 1.85 0 0 1 1.95 1.86v18.72h9.5a1.95 1.95 0 0 1 0 3.9h-11.45a1.84 1.84 0 0 1-1.35-.57 1.86 1.86 0 0 1-.51-1.36Z" fill="#fff"/><path d="M130.34 285.25h-103.78v46.63h103.78v-46.63Z" fill="#455A64"/><path d="M57.39 310.64h-4.26v7.6a1.94 1.94 0 0 1-3.9 0v-20.73a1.86 1.86 0 0 1 1.87-1.86h6.29a7.5 7.5 0 0 1 0 14.99Zm-4.26-3.83h4.26a3.6 3.6 0 1 0 0-7.22h-4.26v7.22Zm16.53 11.44v-20.75a1.86 1.86 0 0 1 3.72 0v8.41h9.08v-8.4a1.86 1.86 0 0 1 1.86-1.87 1.87 1.87 0 0 1 1.82 1.13c.1.23.15.48.15.74v20.68a1.87 1.87 0 0 1-1.97 1.86 1.86 1.86 0 0 1-1.86-1.86v-8.4h-8.9v8.4a1.86 1.86 0 0 1-1.87 1.86 1.85 1.85 0 0 1-2.03-1.8Zm33.06-7.61h-4.32v7.6a1.94 1.94 0 0 1-3.89 0v-20.73a1.86 1.86 0 0 1 1.86-1.86h6.27a7.5 7.5 0 0 1 0 14.99h.08Zm-4.32-3.83h4.32a3.6 3.6 0 1 0 0-7.22h-4.32v7.22Z" fill="#fff"/><path d="m436.25 282.21 7.86 19.02-7.87 3.25-7.9-19.14-13 10.08v-53.55l37.5 37.87-16.6 2.47Zm-20.91-46.09a7.3 7.3 0 0 1-.49-2.7 6.9 6.9 0 0 1 .49-2.7c.33.87.49 1.78.46 2.7a7.3 7.3 0 0 1-.46 2.7Zm-4.65 1.86a7.44 7.44 0 0 1-2.24-1.56 6.72 6.72 0 0 1-1.56-2.25c.84.38 1.6.91 2.23 1.58.67.63 1.2 1.39 1.57 2.23Zm-1.92 4.59a7.72 7.72 0 0 1-5.38 0 8 8 0 0 1 5.38 0Zm1.92 4.71a6.6 6.6 0 0 1-1.57 2.23 7.21 7.21 0 0 1-2.23 1.59c.36-.85.9-1.62 1.56-2.26a7.44 7.44 0 0 1 2.24-1.56Zm11.29-4.71a8.06 8.06 0 0 1 5.4 0 7.76 7.76 0 0 1-5.4 0Zm-2.01-4.59c.37-.84.9-1.6 1.56-2.23a7.1 7.1 0 0 1 2.25-1.58 7.72 7.72 0 0 1-3.81 3.72v.1Z" fill="#263238"/><path d="M556.6 465.7c-14.35 62.47-43.38 141.54-65.8 157.5-18.08 12.87-113 35.53-118.28 36.1-13.12 1.33-39.07-91.23-25.41-95 17.13-4.73 98.45-7.26 103.09-12 4.63-4.75 34.39-45.06 67.91-91.5 23.1-32.1 47.38-33.85 38.49 4.9Z" fill="#F8D197"/><path d="M383 654.23c-1.56.78-23.71 11.92-37.42 15.9-10.21 2.96-39.88 10.7-44.25-.22-3-7.44 13.9-14.06 25.74-19.01 6.25-2.58 13.95-9.13 12.11-13.13-3.22-7.03-19.29 0-29.85 6.15-20.47 11.9-47.68 33.26-60.16 22.88-4.7-3.9.76-11.04 8.78-18.04-13.02 8.15-26.88 14.88-32.3 10.7-3.08-2.37-3.23-5.58-1.5-9.3-4.02 1.3-7.57 1.04-10.05-1.57-4.22-4.42-2.17-10.95 2.46-17.65a5.04 5.04 0 0 1-3.83-2.53c-8.97-13.65 35.84-52.85 51.36-56.51 45.59-10.85 94.08-6.88 94.08-6.88 17.92 14.3 24.87 89.17 24.84 89.21Z" fill="#F8D197"/><path d="M315.95 612.25a77.15 77.15 0 0 0-30.41 11.7c-11.58 7.64-19.24 16.57-28.93 25.55a.28.28 0 0 0-.05.18.28.28 0 0 0 .22.26c.06 0 .13 0 .18-.03 4.62-4.27 23.78-20.35 28.72-24a73.61 73.61 0 0 1 30.27-13.48c.17-.02.13-.2 0-.18Zm-8.48-19.35c-11.98 3.27-24.19 6.59-35.35 12.26-12.18 6.2-21.7 16.31-31.06 26.04a522.14 522.14 0 0 0-16.48 17.91c-.23.25.1.65.35.4a682.45 682.45 0 0 1 29.41-29.28 97.67 97.67 0 0 1 32.27-20.36c6.87-2.6 13.9-4.68 20.93-6.77.1-.03.06-.24-.07-.2Zm-12.8-16.93c-11.65 2.4-21.8 4.45-32.13 10.68-13.63 8.26-26.82 22.17-31.43 27.12-5.12 5.45-10.03 11.16-14.89 16.74-.2.23.21.58.41.34a388.7 388.7 0 0 1 35.52-35.18 77.29 77.29 0 0 1 19.86-12.9 136.7 136.7 0 0 1 22.66-6.72s.03-.08 0-.08Z" fill="#263238"/><path d="m450.88 543.18 87.43-3.72s15.89-43.36 21.73-81.85c5.84-38.49-26.95-24.68-59.41 16.74-32.46 41.43-49.75 68.83-49.75 68.83Z" fill="#1BFF07"/><path d="M479.51 517c.6-.16 1.2-.22 1.86-.35a3.56 3.56 0 0 1 4.32 3.46 2.76 2.76 0 0 0 1.28 2.4c.44.29.95.46 1.47.5.6.12 1.2.19 1.86.36-.6.16-1.19.24-1.86.37-.67.13-1.36.06-1.99-.2a3.72 3.72 0 0 1-2.23-3.4 2.71 2.71 0 0 0-1.36-2.32 3.26 3.26 0 0 0-1.49-.44c-.67-.11-1.26-.19-1.86-.38Zm61.52-53.12c.53.04 1.04.2 1.5.46a2.75 2.75 0 0 1 1.36 2.33 3.72 3.72 0 0 0 2.24 3.38c.62.27 1.32.33 1.99.2.59-.12 1.18-.2 1.86-.36-.6-.17-1.2-.24-1.87-.36a3.13 3.13 0 0 1-1.47-.5 2.83 2.83 0 0 1-1.28-2.4 3.73 3.73 0 0 0-2.34-3.33 3.73 3.73 0 0 0-2-.13c-.59.11-1.18.19-1.76.36.6.16 1.2.24 1.77.35Zm2.23 34.1c-.4.34-.88.6-1.4.72a2.7 2.7 0 0 1-2.58-.67 3.72 3.72 0 0 0-3.98-.83c-.63.26-1.17.71-1.54 1.28-.34.5-.71.96-1.01 1.5.54-.3 1-.67 1.5-1 .41-.33.9-.57 1.4-.69a2.81 2.81 0 0 1 2.6.8 3.56 3.56 0 0 0 5.59-.61c.33-.5.7-.99 1-1.53-.6.32-1.06.7-1.56 1.03h-.02Zm-23.77-39.77c-.4.34-.88.6-1.4.74a2.8 2.8 0 0 1-2.6-.69l-.47-.4c-.35.35-.69.7-1.02 1.07.18.1.34.24.48.4a3.73 3.73 0 0 0 4.02.7c.61-.3 1.13-.75 1.49-1.32.33-.5.7-.97 1-1.5-.42.27-.98.66-1.48 1h-.02Zm-9.88 32.75a3.6 3.6 0 0 1-.45 1.51 2.79 2.79 0 0 1-2.32 1.36 3.72 3.72 0 0 0-3.4 2.23 3.48 3.48 0 0 0-.2 1.97c.14.6.2 1.2.36 1.86.17-.6.24-1.19.37-1.86.05-.52.22-1.02.49-1.47a2.8 2.8 0 0 1 2.4-1.26 3.71 3.71 0 0 0 3.34-2.35c.22-.64.27-1.32.13-1.99-.13-.6-.2-1.19-.37-1.86-.16.67-.22 1.27-.35 1.86Zm25.04 33.32a3.34 3.34 0 0 1-.45 1.5 2.75 2.75 0 0 1-2.32 1.36 3.72 3.72 0 0 0-3.39 2.22 3.4 3.4 0 0 0-.2 1.99c.13.6.2 1.19.37 1.86.17-.6.24-1.2.35-1.86a3.3 3.3 0 0 1 .5-1.47 2.77 2.77 0 0 1 2.4-1.27 3.72 3.72 0 0 0 3.33-2.34c.23-.64.27-1.33.13-2-.1-.59-.18-1.18-.35-1.85-.17.67-.24 1.26-.37 1.86Z" fill="#fff"/><path d="M541.34 520.48c-18.91-.48-37.89.36-56.8 1.57-5.36.36-10.7.83-16.04 1.41-.15 0-.17.24 0 .24 9.45 0 18.9-.31 28.35-.6 9.45-.27 18.97-.66 28.44-1.2 5.36-.32 10.7-.63 16.04-1.06.24-.02.26-.36.01-.36Z" fill="#263238"/><path d="M475.42 682.99h223.22c2.45-4.5-34.15-200.1-109.45-255.18-16.74-12.2-46.34-4.35-54.58 7.53-41.37 59.72-59.19 247.65-59.19 247.65Z" fill="#1BFF07"/><path d="M570.12 517c.6-.16 1.2-.22 1.86-.35a3.56 3.56 0 0 1 4.32 3.46 2.78 2.78 0 0 0 1.28 2.4c.44.28.95.46 1.47.5.6.12 1.19.19 1.86.36-.6.16-1.2.24-1.86.37a3.4 3.4 0 0 1-2-.2 3.72 3.72 0 0 1-2.22-3.4 2.72 2.72 0 0 0-1.36-2.32 3.2 3.2 0 0 0-1.49-.44c-.67-.11-1.19-.19-1.86-.38Zm34.7 118.07c.52.04 1.03.2 1.48.46a2.7 2.7 0 0 1 1.36 2.31 3.72 3.72 0 0 0 2.23 3.4c.63.26 1.32.32 2 .2.59-.12 1.18-.2 1.85-.36-.6-.17-1.19-.24-1.86-.37a3.07 3.07 0 0 1-1.47-.49 2.82 2.82 0 0 1-1.28-2.4 3.6 3.6 0 0 0-2.35-3.33 3.46 3.46 0 0 0-1.97-.13c-.6.11-1.19.19-1.86.36.67.18 1.32.26 1.86.37v-.02Zm40.92-111.33c.52.03 1.03.18 1.48.44a2.73 2.73 0 0 1 1.36 2.33 3.72 3.72 0 0 0 2.23 3.39c.63.26 1.33.34 2 .2.59-.13 1.19-.2 1.86-.37-.6-.17-1.2-.24-1.87-.36a3.2 3.2 0 0 1-1.46-.5 2.77 2.77 0 0 1-1.29-2.4 3.56 3.56 0 0 0-4.31-3.46c-.6.13-1.2.19-1.86.36.7.18 1.32.26 1.9.39l-.04-.02Zm-104.71-59.86c.53.04 1.04.2 1.5.46a2.75 2.75 0 0 1 1.36 2.33 3.72 3.72 0 0 0 2.23 3.38c.63.27 1.33.33 2 .2.59-.12 1.18-.2 1.86-.36-.6-.17-1.2-.24-1.87-.36a3.13 3.13 0 0 1-1.47-.5 2.83 2.83 0 0 1-1.28-2.4 3.73 3.73 0 0 0-2.34-3.33 3.73 3.73 0 0 0-2-.13c-.59.11-1.18.19-1.76.36.6.16 1.2.24 1.77.35Zm64.45-1.34a3.6 3.6 0 0 1 1.5.45 2.8 2.8 0 0 1 1.37 2.32 3.73 3.73 0 0 0 2.23 3.4c.63.26 1.32.32 1.99.2.58-.14 1.17-.21 1.77-.36-.6-.17-1.2-.24-1.77-.37a3.51 3.51 0 0 1-1.49-.49 2.8 2.8 0 0 1-1.26-2.4 3.72 3.72 0 0 0-2.35-3.35 3.73 3.73 0 0 0-1.99-.13c-.6.13-1.19.2-1.86.38.65.14 1.29.22 1.88.35h-.02Zm-80.26 104.17a3.6 3.6 0 0 1 1.5.44 2.77 2.77 0 0 1 1.34 2.33 3.72 3.72 0 0 0 2.23 3.4 3.6 3.6 0 0 0 2 .2c.59-.12 1.19-.2 1.86-.36-.6-.17-1.2-.25-1.87-.38a3.26 3.26 0 0 1-1.46-.48 2.82 2.82 0 0 1-1.29-2.4 3.6 3.6 0 0 0-2.34-3.33 3.45 3.45 0 0 0-1.97-.13c-.6.11-1.2.19-1.86.36.68.09 1.28.16 1.88.27l-.02.08Zm70.27 107.89a3.5 3.5 0 0 1 1.51.44 2.79 2.79 0 0 1 1.36 2.33 3.73 3.73 0 0 0 2.2 3.33c.62.25 1.32.32 1.98.18.6-.13 1.2-.2 1.86-.37-.6-.16-1.19-.22-1.86-.35a3.12 3.12 0 0 1-1.47-.5 2.76 2.76 0 0 1-1.28-2.38 3.58 3.58 0 0 0-4.33-3.48c-.6.13-1.18.2-1.86.37.74.11 1.37.19 1.91.32l-.02.1Zm-34.6-57.95c.53.03 1.05.18 1.51.45a2.7 2.7 0 0 1 1.34 2.33 3.72 3.72 0 0 0 2.23 3.38 3.4 3.4 0 0 0 2 .2c.59-.12 1.18-.2 1.85-.37-.6-.16-1.19-.24-1.86-.35a3.29 3.29 0 0 1-1.47-.5 2.72 2.72 0 0 1-1.28-2.48 3.59 3.59 0 0 0-4.33-3.46c-.6.12-1.2.19-1.87.36.71.13 1.3.2 1.9.33l-.02.11Zm-79.24 59.4a3.3 3.3 0 0 1-1.47-.5 2.72 2.72 0 0 1-1.26-2.4 3.72 3.72 0 0 0-2.12-3.22c0 .48-.12.93-.15 1.38a2.54 2.54 0 0 1 .78 1.86 3.71 3.71 0 0 0 2.23 3.38 3.4 3.4 0 0 0 2 .2c.59-.12 1.18-.2 1.85-.37-.65-.26-1.25-.33-1.84-.44l-.02.1Zm15.22-48.87c.53.03 1.04.18 1.5.45a2.75 2.75 0 0 1 1.36 2.32 3.73 3.73 0 0 0 2.23 3.39c.63.27 1.33.34 2 .2.59-.13 1.17-.2 1.76-.37-.6-.16-1.17-.24-1.77-.35a3.13 3.13 0 0 1-1.46-.5 2.73 2.73 0 0 1-1.29-2.4 3.72 3.72 0 0 0-2.34-3.33 3.74 3.74 0 0 0-2-.13c-.59.13-1.18.18-1.85.35.69.06 1.37.13 1.88.26l-.02.11Zm93.49-59.02c.53.04 1.04.2 1.5.47a2.75 2.75 0 0 1 1.36 2.32 3.72 3.72 0 0 0 2.24 3.38c.62.27 1.3.33 1.97.2.6-.12 1.19-.2 1.86-.36-.6-.17-1.2-.24-1.86-.35a3.29 3.29 0 0 1-1.47-.5 2.8 2.8 0 0 1-1.27-2.4 3.71 3.71 0 0 0-2.34-3.34 3.71 3.71 0 0 0-2-.13c-.59.11-1.18.19-1.85.36.69.05 1.28.13 1.88.24l-.02.11Zm81.85 79.35a3.5 3.5 0 0 1 1.48.45 2.75 2.75 0 0 1 1.36 2.33 3.72 3.72 0 0 0 2.23 3.4 3.6 3.6 0 0 0 2 .19c.59-.13 1.19-.2 1.86-.38-.6-.16-1.2-.22-1.87-.35a3.2 3.2 0 0 1-1.47-.5 2.77 2.77 0 0 1-1.28-2.38 3.56 3.56 0 0 0-4.31-3.48c-.6.13-1.2.2-1.86.37.72.06 1.32.06 1.91.24l-.05.11Zm-32.52-48.36c.53.03 1.04.19 1.5.45a2.8 2.8 0 0 1 1.36 2.32 3.72 3.72 0 0 0 2.24 3.4c.63.26 1.32.32 1.99.2.6-.14 1.19-.2 1.86-.36-.6-.17-1.2-.24-1.86-.37a3.13 3.13 0 0 1-1.47-.49 2.83 2.83 0 0 1-1.28-2.4 3.72 3.72 0 0 0-2.35-3.33 3.72 3.72 0 0 0-1.99-.15c-.6.13-1.17.2-1.77.38.65.05 1.23.05 1.83.16l-.06.19Zm-96.47-100.99c-.4.35-.88.6-1.4.73a2.7 2.7 0 0 1-2.58-.67 3.72 3.72 0 0 0-3.98-.84c-.63.27-1.16.72-1.54 1.28-.34.5-.71.97-1 1.51.53-.3 1-.67 1.5-1 .4-.34.88-.57 1.4-.7a2.81 2.81 0 0 1 2.6.8 3.56 3.56 0 0 0 5.58-.6c.33-.5.7-1 1-1.53-.55.13-1.02.5-1.52.84l-.06.18Zm96.25 69.07c-.4.35-.87.6-1.38.74a2.8 2.8 0 0 1-2.6-.69 3.72 3.72 0 0 0-3.97-.81 3.5 3.5 0 0 0-1.54 1.26c-.33.5-.7.97-1 1.5.53-.29 1-.66 1.5-1 .4-.33.88-.57 1.4-.68a2.77 2.77 0 0 1 2.58.8 3.6 3.6 0 0 0 5.58-.62c.34-.5.71-.97 1-1.5-.59.26-1.05.63-1.57 1Zm-60.03-128.9c-.4.36-.87.61-1.38.75a2.69 2.69 0 0 1-2.6-.69 3.71 3.71 0 0 0-3.98-.81 3.5 3.5 0 0 0-1.55 1.26c-.33.52-.7.99-1 1.53.54-.3 1.02-.67 1.53-1 .4-.34.87-.58 1.37-.7a2.82 2.82 0 0 1 2.6.78 3.55 3.55 0 0 0 5.59-.59c.33-.52.7-.99 1-1.53-.6.28-1.08.64-1.58.97v.04Zm-1.2 38.16a3.72 3.72 0 0 1-.47 1.49 2.72 2.72 0 0 1-2.33 1.36 3.73 3.73 0 0 0-3.39 2.23 3.55 3.55 0 0 0-.2 1.99c.13.6.2 1.19.37 1.86.17-.6.24-1.2.36-1.86a3.2 3.2 0 0 1 .5-1.47 2.83 2.83 0 0 1 2.4-1.28 3.57 3.57 0 0 0 3.46-4.32c-.11-.6-.19-1.19-.36-1.86-.13.67-.2 1.27-.35 1.86Zm-14.18 104.58c-.04.53-.2 1.04-.47 1.5a2.75 2.75 0 0 1-2.32 1.36 3.72 3.72 0 0 0-3.39 2.24 3.53 3.53 0 0 0-.18 1.99c.1.6.18 1.19.35 1.86.17-.6.24-1.2.37-1.86a2.93 2.93 0 0 1 1.52-2.42c.42-.23.89-.34 1.36-.34a3.7 3.7 0 0 0 3.33-2.34 3.5 3.5 0 0 0 .13-2c-.1-.57-.18-1.16-.35-1.76-.13.6-.2 1.2-.32 1.77h-.03Zm74.22-91.15h-.3a3.71 3.71 0 0 0-3.4 2.23 3.53 3.53 0 0 0-.2 2c.12.59.2 1.18.36 1.85.17-.6.24-1.19.38-1.86.03-.52.2-1.02.48-1.47a2.83 2.83 0 0 1 2.4-1.28c.33 0 .65-.06.97-.17l-.7-1.3Zm-.52 168.98a3.35 3.35 0 0 1-.45 1.5 2.76 2.76 0 0 1-2.33 1.36 3.72 3.72 0 0 0-3.38 2.24 3.53 3.53 0 0 0-.2 1.99c.12.6.2 1.19.37 1.86.16-.58.24-1.18.35-1.86a3.12 3.12 0 0 1 1.53-2.44c.42-.22.9-.33 1.37-.32a3.72 3.72 0 0 0 3.33-2.34c.23-.64.27-1.33.13-2-.11-.59-.19-1.18-.35-1.85-.13.67-.2 1.34-.37 1.86Zm31.94-94.87v.15a2.71 2.71 0 0 1-2.33 1.36 3.73 3.73 0 0 0-3.39 2.23 3.4 3.4 0 0 0-.2 1.99c.13.6.2 1.19.37 1.86.17-.6.24-1.2.36-1.86a3.3 3.3 0 0 1 .5-1.47 2.77 2.77 0 0 1 2.4-1.28 3.7 3.7 0 0 0 2.86-1.47l-.57-1.51Zm-163.27 20.8a3.43 3.43 0 0 1-.45 1.49 2.76 2.76 0 0 1-2.32 1.35 3.72 3.72 0 0 0-3.4 2.24 3.53 3.53 0 0 0-.2 1.99c.14.6.2 1.19.36 1.86.17-.6.24-1.2.37-1.87.05-.51.21-1.02.49-1.46a2.84 2.84 0 0 1 2.4-1.29 3.71 3.71 0 0 0 3.34-2.34c.22-.64.27-1.32.13-1.97-.13-.6-.2-1.2-.37-1.86-.16.67-.22 1.26-.35 1.86Zm3.92-93.74-.95 3.11a3.4 3.4 0 0 0 .95-3.1Zm33.49-61.14a3.5 3.5 0 0 1-.47 1.5 2.75 2.75 0 0 1-2.32 1.36 3.71 3.71 0 0 0-3.39 2.24 3.53 3.53 0 0 0-.2 1.99c.13.6.2 1.19.37 1.86.17-.6.24-1.2.35-1.86.04-.53.22-1.03.5-1.47a2.82 2.82 0 0 1 2.4-1.29 3.72 3.72 0 0 0 3.33-2.34c.23-.64.27-1.33.13-1.99-.1-.58-.18-1.17-.35-1.77-.15.6-.22 1.2-.34 1.77h-.01Zm-9.21 94.33a3.36 3.36 0 0 1-.45 1.5 2.75 2.75 0 0 1-2.32 1.36 3.72 3.72 0 0 0-3.39 2.22 3.4 3.4 0 0 0-.2 1.99c.13.6.2 1.19.37 1.86.17-.6.24-1.2.35-1.86a3.3 3.3 0 0 1 .5-1.47 2.77 2.77 0 0 1 2.4-1.27 3.72 3.72 0 0 0 3.33-2.34c.23-.64.27-1.33.13-2-.1-.59-.18-1.18-.35-1.85-.15.67-.22 1.26-.35 1.86h-.02Zm82.53 12.69a3.43 3.43 0 0 1-.44 1.48 2.76 2.76 0 0 1-2.33 1.36 3.72 3.72 0 0 0-3.4 2.23 3.53 3.53 0 0 0-.19 2c.13.59.19 1.18.36 1.85.16-.6.24-1.19.37-1.86a3.5 3.5 0 0 1 .48-1.47 2.83 2.83 0 0 1 2.4-1.28 3.72 3.72 0 0 0 3.35-2.34c.22-.64.26-1.32.13-1.98-.13-.59-.2-1.19-.37-1.86-.23.67-.23 1.27-.34 1.87h-.02Zm-76.26 105.91c-.04.53-.2 1.04-.47 1.5a2.72 2.72 0 0 1-2.32 1.35 3.72 3.72 0 0 0-3.39 2.23 3.38 3.38 0 0 0-.18 2c.1.59.18 1.18.35 1.85.17-.6.24-1.19.35-1.86.05-.52.22-1.03.5-1.47a2.82 2.82 0 0 1 2.4-1.28 3.56 3.56 0 0 0 3.46-4.32c-.1-.6-.18-1.19-.35-1.86-.22.62-.22 1.27-.33 1.86h-.02Zm64-138.65c.4-.35.87-.6 1.38-.75a2.8 2.8 0 0 1 2.6.69 3.73 3.73 0 0 0 3.97.84 3.53 3.53 0 0 0 1.54-1.29c.34-.5.7-.96 1-1.5-.53.3-1 .67-1.5 1-.4.34-.88.57-1.4.69a2.77 2.77 0 0 1-2.58-.8 3.59 3.59 0 0 0-5.58.61c-.34.5-.7.97-1 1.51.6-.3 1.07-.67 1.6-1h-.02Zm-48.15 43.6c.4-.35.88-.6 1.4-.73a2.74 2.74 0 0 1 2.6.67 3.71 3.71 0 0 0 3.96.84 3.53 3.53 0 0 0 1.54-1.28c.34-.5.7-.97 1-1.51-.53.3-1 .67-1.5 1-.4.34-.88.57-1.4.7a2.82 2.82 0 0 1-2.6-.8 3.58 3.58 0 0 0-5.58.6c-.33.5-.7 1-1 1.53.63-.22 1.1-.69 1.6-1.02h-.02Zm-32.61 64.25c.4-.35.87-.6 1.37-.75a2.8 2.8 0 0 1 2.6.7 3.72 3.72 0 0 0 3.99.81 3.5 3.5 0 0 0 1.54-1.26c.34-.5.71-.99 1-1.53-.53.32-1 .67-1.52 1-.39.35-.86.6-1.38.7a2.76 2.76 0 0 1-2.6-.79 3.72 3.72 0 0 0-4.02-.7c-.6.29-1.12.74-1.49 1.32-.33.5-.7.96-1 1.5.56-.3 1.02-.67 1.53-1h-.02Zm14.12 66.76c.4-.35.86-.6 1.37-.73a2.74 2.74 0 0 1 2.6.67 3.71 3.71 0 0 0 3.99.84 3.53 3.53 0 0 0 1.54-1.28c.34-.5.7-.97 1-1.51-.53.3-1 .67-1.52 1-.4.34-.87.57-1.38.7a2.8 2.8 0 0 1-2.6-.8 3.58 3.58 0 0 0-5.58.6c-.33.5-.7 1-1 1.51.63-.31 1.07-.68 1.58-1Zm63.11-73.35c.4-.35.87-.6 1.38-.74a2.8 2.8 0 0 1 2.6.69 3.72 3.72 0 0 0 3.98.82 3.5 3.5 0 0 0 1.53-1.27c.33-.5.7-.99 1.02-1.52-.54.31-1.02.66-1.52 1-.4.35-.88.59-1.4.69a2.71 2.71 0 0 1-2.59-.78 3.72 3.72 0 0 0-4.01-.71c-.62.29-1.15.74-1.51 1.32-.33.5-.69.97-1 1.5.53-.3 1.02-.68 1.52-1.01v.01Zm43.44 26.59c.4-.35.87-.6 1.37-.75a2.78 2.78 0 0 1 2.6.69 3.71 3.71 0 0 0 3.99.82c.62-.26 1.16-.7 1.54-1.27.34-.5.7-.97 1-1.5-.53.3-1 .67-1.52 1-.4.33-.87.57-1.38.69a2.8 2.8 0 0 1-2.6-.8 3.56 3.56 0 0 0-5.58.61c-.34.5-.7.97-1 1.5.59-.3 1.07-.74 1.58-1.01v.02Zm-73.07 20.16c.4-.35.87-.6 1.38-.75a2.8 2.8 0 0 1 2.6.7 3.71 3.71 0 0 0 3.98.81 3.5 3.5 0 0 0 1.54-1.26c.34-.5.7-.99 1-1.53-.53.32-1.01.69-1.52 1.02-.4.34-.88.58-1.4.7a2.77 2.77 0 0 1-2.58-.8 3.72 3.72 0 0 0-4.01-.71c-.61.3-1.13.75-1.5 1.32-.33.5-.7.96-1.02 1.5.58-.3 1.03-.67 1.53-1Zm94.24 26.6c.4-.35.86-.6 1.37-.73a2.74 2.74 0 0 1 2.6.67 3.72 3.72 0 0 0 3.99.84 3.54 3.54 0 0 0 1.54-1.28c.34-.5.7-.97 1-1.51-.53.3-1 .67-1.52 1-.4.34-.87.57-1.38.7a2.8 2.8 0 0 1-2.6-.8 3.57 3.57 0 0 0-5.58.6c-.34.5-.7 1-1 1.51.6-.31 1.07-.68 1.58-1Zm16.74-72.25a2.72 2.72 0 0 1-1.18-.7 3.56 3.56 0 0 0-5.58.6c-.33.51-.7.98-1 1.51.54-.3 1-.66 1.5-1 .4-.34.88-.6 1.38-.74a2.79 2.79 0 0 1 2.6.68 3.72 3.72 0 0 0 2.6 1.1l-.32-1.45Zm-178.3 54.86c.4-.35.87-.6 1.38-.75a2.78 2.78 0 0 1 2.6.7 3.72 3.72 0 0 0 3.98.83 3.54 3.54 0 0 0 1.54-1.28c.34-.5.71-.97 1.01-1.51-.54.3-1 .67-1.53 1-.4.34-.87.57-1.37.7a2.83 2.83 0 0 1-2.6-.8 3.56 3.56 0 0 0-5.59.6c-.33.5-.7.99-1 1.51.69-.35 1.15-.69 1.65-1.02l-.07.02Zm-5.38-112.08c.4-.35.87-.61 1.38-.74a2.69 2.69 0 0 1 2.6.69 3.71 3.71 0 0 0 3.99.81 3.4 3.4 0 0 0 1.52-1.26c.34-.52.7-.99 1.02-1.52-.54.3-1.02.66-1.52 1-.4.35-.88.59-1.4.69a2.76 2.76 0 0 1-2.58-.78 3.72 3.72 0 0 0-4.02-.71 3.6 3.6 0 0 0-1.5 1.3c-.34.52-.7.99-1.01 1.53.61-.32 1.1-.7 1.6-1.03l-.08.02Z" fill="#fff"/><path d="M510.9 487.37c-2.05 7.44-4.04 14.88-5.96 22.32.24-3.25.6-6.49 1.02-9.72 0-.19-.26-.28-.31 0a69.2 69.2 0 0 0-1.32 12.18 844.8 844.8 0 0 0-6.48 27.07 947.01 947.01 0 0 0-10.04 52.4c-1.58 9.91-2.81 19.86-4.5 29.76 0 .19.26.26.3 0 1.54-8.76 3.6-17.47 5.57-26.17 1.98-8.7 3.72-17.3 5.58-25.95 3.61-17.43 7.45-34.8 11.02-52.22 2.03-9.82 3.9-19.66 5.93-29.46a.43.43 0 0 0-.05-.32.42.42 0 0 0-.77.11Z" fill="#263238"/><path d="M502.17 371.5c2.47 13.55-5.15 26.29-17.04 28.46-11.89 2.18-23.51-7.05-26.04-20.59-2.53-13.54 5.13-26.3 17.02-28.46 11.88-2.16 23.58 7.05 26.06 20.6Z" fill="#455A64"/><path d="M509.3 371.08c2.75 15.06-5.74 29.24-18.94 31.62-13.21 2.38-26.18-7.83-28.93-22.9-2.75-15.07 5.73-29.24 18.94-31.62 13.2-2.38 26.17 7.83 28.92 22.9Z" fill="#C7C7C7"/><path d="M547 477.4c13.47 0 30.6-24.85 35.34-42.78.32-1.23-14.66-43.4-16.74-52.09-.43-1.86-51.13 26.38-51.13 26.38s9.74 16.87 13.31 32c.34 1.35 6.2 36.55 19.22 36.5Z" fill="#F8D197"/><path d="M534.05 444.2c-1.76.49-3.56.82-5.37.98a143.08 143.08 0 0 1-.54-2.73v-.24c0-.26-.1-.54-.17-.82v-.39a90.08 90.08 0 0 0-3.05-9.97 157.85 157.85 0 0 0-9.02-19.77l-1.2-2.2 1.35-.76 1.86-.99 1.19-.65 1.47-.82 1.35-.74.26-.15 1.86-.97.41-.22 1.77-.97.93-.5 2.87-1.56 2.19-1.2 1.86-1 6.36-3.42 2.05-1.12 7.35-3.87 1.58-.81.78-.66 1.24-.65 2.68-1.36 1.64-.81c.8-.41 1.54-.77 2.25-1.1.36-.19.7-.34 1.02-.49.97-.46 1.86-.83 2.5-1.11l.44-.19c.64 14.74-.61 53.4-29.9 61.26Z" fill="#263238"/><path d="M550.44 317.35c12 16.91 20.18 74.54 10.84 91.15-13.54 24.04-44.73 36.3-67.43 17.95-21.98-17.76-31.3-93-20.03-109.08 16.6-23.58 58.87-24.96 76.62-.02Z" fill="#F8D197"/><path d="M507.55 368.2c0-.18.31.12.33.29.45 3.89 1.62 8.28 5.32 9.06.11 0 .13.22 0 .22-4.47.08-5.95-5.76-5.66-9.58Z" fill="#263238"/><path d="M510.32 363.67c6.17-1.37 8.5 11.16 2.77 12.35-5.73 1.2-7.95-11.18-2.77-12.35Zm-24.06 9.13c0-.14-.26.23-.24.4.86 3.83 1.18 8.35-2.08 10.28-.1 0 0 .26 0 .23 4.22-1.4 3.74-7.4 2.32-10.9Z" fill="#263238"/><path d="M482.08 369.42c-6.29.69-4.46 13.2 1.38 12.57 5.84-.63 3.88-13.15-1.38-12.57Zm32.09-12.39a46.58 46.58 0 0 1-5.14-.8 8.33 8.33 0 0 1-5.1-1.86 2.71 2.71 0 0 1-.16-3.27 6.67 6.67 0 0 1 6.45-1.86 9.79 9.79 0 0 1 6.3 3.12 2.85 2.85 0 0 1-2.35 4.67Zm-38.08 7.01c1.6-.64 3.18-1.38 4.7-2.2a8.48 8.48 0 0 0 4.38-3.17 2.68 2.68 0 0 0-.77-3.18 6.62 6.62 0 0 0-6.71 0 9.6 9.6 0 0 0-5.17 4.76 2.85 2.85 0 0 0 3.57 3.8Zm42.61 39.06c-.74 1.09-1.43 2.5-2.8 2.87a10.34 10.34 0 0 1-4.43-.19.13.13 0 0 0-.09.15l.05.08a5.26 5.26 0 0 0 5.29 1.17 4.16 4.16 0 0 0 2.4-3.96c.01-.24-.3-.26-.41-.11Z" fill="#263238"/><path d="M512.51 392.38a13.34 13.34 0 0 1-7.68 7.44c-1.5.58-3.07.95-4.67 1.1-.31.02-.62.02-.93 0h-.86a.99.99 0 0 1-.94-.71 2.55 2.55 0 0 1 0-.4v-.33a107.3 107.3 0 0 1-1.2-7.44c-.98.74-6.04 4.26-6.25 2.7-1.63-13.02-3.46-27.42-2.34-40.69a.38.38 0 0 1 .36-.28.4.4 0 0 1 .24.08c.06.05.1.12.13.2 2.06 12.43 1.86 25.12 3.81 37.62a23.1 23.1 0 0 1 5.84-3.03c.45 0 .91 8.83 1.3 10.13v.15c5.1-.3 8.58-2.5 12.8-6.77.2-.37.56-.17.4.23Z" fill="#263238"/><path d="M501.63 399.07a15.91 15.91 0 0 0 7.12 3.72c1.46.27 2.97.09 4.32-.54 2.92-1.37 2.47-4.22 1.45-6.53a16.72 16.72 0 0 0-2.06-3.44 20.46 20.46 0 0 1-10.83 6.8Z" fill="#263238"/><path d="M508.75 402.74c1.46.27 2.97.08 4.32-.54 2.92-1.38 2.47-4.23 1.45-6.53-3.25.96-6.08 3.81-5.77 7.06Z" fill="#FF99BA"/><path opacity=".2" d="M548.28 341.56c3.83 4.85 12.2 16.5 15.05 16.64-2.94-18.77-7.72-35.15-15.2-43.88a38.95 38.95 0 0 0-10.99-8.87c1.08 4.95 7.07 31.12 11.14 36.1Z" fill="#263238"/><path d="M492.37 330.15a18.6 18.6 0 0 0 17.63 4.37 19.05 19.05 0 0 0 13.33-13.12.15.15 0 0 1 .1-.05c.04 0 .08.02.1.05.03.03.05.06.05.1a18.85 18.85 0 0 1-13.15 14.3 19.22 19.22 0 0 1-18.38-5.57.22.22 0 0 1 .23-.1c.03 0 .06 0 .09.02Zm14.03-47.93c10.76-.97 21.29 3.86 26.03 10.75a20.9 20.9 0 0 1 3.54 13.32c0 .18-.4.18-.4 0a22.96 22.96 0 0 0-13.01-19.42 29.56 29.56 0 0 0-26.38-.19 18.6 18.6 0 0 0-9.1 9.15c-.16.41-1 .24-.87-.16 2.1-7.06 10.43-12.56 20.18-13.45Zm-59.77 30.32a23.8 23.8 0 0 1 8.66-13.88c6.12-4.82 13.66-5.06 21.12-5.13.2 0 .22.31 0 .31-6.37.1-12.82.56-18.27 4.17a23.35 23.35 0 0 0-9.5 12.54 22.87 22.87 0 0 0 12.57 27.14 23.16 23.16 0 0 0 18.4-.2c.22-.1.44.21.2.33a23.33 23.33 0 0 1-33.2-25.28h.01Z" fill="#263238"/><path d="M556.45 329.67s7.94-20.46-1.86-30.5c-5.58-5.74-21.49-3.04-21.49-3.04a29.07 29.07 0 0 0-19.98-10.08c-13.76-1.5-28.79 8.2-28.79 8.2s-13.6-5.8-24.74 2.42c-15.51 11.46-10.45 36.55 7.24 42.78 12.44 4.34 27.17-7.94 27.17-7.94 1.56 0 18.4 7.64 28.65-7.78 0 0 10.66 7.44 18.6.43a14.1 14.1 0 0 0 15.2 5.5Z" fill="#806A49"/><path d="M515.62 385.14a16.76 16.76 0 1 1 15.5-14.4 16.75 16.75 0 0 1-11.4 13.56c-1.32.45-2.7.73-4.1.84Zm-15.52-15.87a14.53 14.53 0 1 0 29.01-1.8 14.53 14.53 0 0 0-29 1.8Zm-19.29 22.58c-6.75 1.32-13.7-4.98-15.47-14.06a20.1 20.1 0 0 1 1.2-12.2 10.47 10.47 0 0 1 17.58-3.44c3 2.92 5 6.7 5.74 10.82 1.67 8.6-1.87 16.74-7.99 18.6-.34.12-.7.21-1.06.28Zm-12.22-25.31a17.71 17.71 0 0 0-1.06 10.82c1.55 7.85 7.31 13.38 12.86 12.3 5.54-1.08 8.8-8.37 7.27-16.24a17.95 17.95 0 0 0-5.06-9.64 8.96 8.96 0 0 0-7.81-2.66c-.28.05-.56.11-.82.2a9.3 9.3 0 0 0-5.38 5.22Z" fill="#1BFF07"/><path d="m498.76 371.2 1.1-1.95c-2.92-1.62-9.3-3.3-12.42 1.86l1.86 1.2c2.88-4.64 9.2-1.23 9.46-1.1Zm74.23-10.13 1.76-1.4c-.65-.81-6.5-8-11.59-7.83-4.72.17-33.7 8.7-34.93 9.08l.63 2.16c8.32-2.48 30.71-8.88 34.38-9 3.35-.1 8.16 5.02 9.75 6.99Z" fill="#1BFF07"/><path d="M553.58 365.51s6.87-21.5 16.26-19.64c9.4 1.86 8.07 30.45-.26 36.89a10.01 10.01 0 0 1-14.43-1.16l-1.57-16.09Z" fill="#F8D197"/><path d="M569.26 354.06c.15 0 .25.14.13.24-5.78 4.72-7.34 11.94-7.8 19.05 1.2-3.06 3.45-5.23 7.43-3.91.23 0 .13.39 0 .4a6.2 6.2 0 0 0-5.86 4.08 29.3 29.3 0 0 0-1.47 6.21c-.13.7-1.28.71-1.26 0v-.16c-2.83-8.43.06-22.25 8.84-25.92Z" fill="#263238"/><path d="M563.96 349.22s-1.34-30.12-11.92-45.61c-11.8-17.26-44.35-28.82-67.64-9.3 0 0 33.82-8.8 55.98 12 10.17 9.56 13.7 44.86 13.7 44.86l9.88-1.95Z" fill="#C7C7C7"/><path d="M564.66 392.59c13.37-1.36 22.95-14.8 21.4-30.05-1.54-15.24-13.63-26.5-27-25.14-13.37 1.36-22.95 14.81-21.4 30.05 1.54 15.24 13.63 26.5 27 25.14Z" fill="#C7C7C7"/><path d="M544.64 365.85c1.4 13.7 12.25 23.83 24.27 22.6 12.02-1.23 20.63-13.32 19.25-27.01-1.37-13.7-12.25-23.81-24.29-22.6-12.03 1.2-20.63 13.32-19.23 27Z" fill="#455A64"/><path d="M617.83 447.14c36.05 38.62 121.83 183.52 94.02 210.2-27.81 26.67-182.11-9.3-225.46-29.9-12.9-6.14 36.1-86.53 51.25-88.41 12.61-1.56 77.13 27.9 78.99 24.18 2.12-4.18-12.54-31.1-28.06-87.15-17.9-64.53 13.34-45.98 29.26-28.92Zm-144.25 65.98c-31.33-4.36-40.05-.67-64.53-18.4-16.07-11.63-30.4-6.36-21.24 12.13 15 30.23 54.26 44.35 69.27 45.33l16.5-39.06Z" fill="#F8D197"/><path d="M556.82 543.29s-35.21-19.55-68.14-27.51c-22.78-5.49-73.66-11.94-122.34 38.26-11.55 11.92-19.57 37.07 6.36 24.48 18.42-8.97 27.38-20.2 39.06-23.46 0 0-6.38 33.23 6 44.31a307.07 307.07 0 0 0 34.43 26.72 66.26 66.26 0 0 0 5.58-6s12.55 9.3 36.16 7.04l62.89-83.84Z" fill="#F8D197"/><path d="M466.1 514.01c-10.88 5.67-33.76 18.1-48.94 34.77-16.85 18.5-44.35 58.72-30.56 71.04 10.12 9.02 21.97-5.42 21.97-5.42s-7.85 19.01 3.06 25.17c9.96 5.58 18.44-6.1 18.44-6.1s-2.77 12.35 7.85 15.9c12.78 4.28 16.52-22.32 33.2-29.18 3.74-1.53-5.02-106.18-5.02-106.18Z" fill="#F8D197"/><path d="M439.69 563.32c-9.3 7.03-26.55 28.43-31.3 50.58-.1.5.21.86.42.43a245.2 245.2 0 0 1 31.06-50.82c.08-.13-.07-.26-.18-.19Zm18.21 17.56c-7.44 6.9-24.19 29.77-28.24 52.37-.1.5.26.83.45.39a264.32 264.32 0 0 1 27.9-52.6c.15-.12-.02-.23-.11-.16Zm-46.15-26.02c-10.22 3.01-16.86 8.02-25.49 14-4.22 3.03-8.61 5.8-13.15 8.34-4.17 2.25-10.29 5.58-14.73 2.12-2.46-1.95-2.42-5.58-1.86-8.33a22.5 22.5 0 0 1 3.72-8.84c.1-.13-.13-.3-.23-.17a30.48 30.48 0 0 0-4.22 7.56 13.54 13.54 0 0 0-.93 7.98c1.5 5.58 8.15 6.36 12.84 4.81 2.8-1.02 5.5-2.32 8.05-3.88 2.48-1.44 4.88-2.96 7.24-4.56 4.85-3.3 9.52-6.85 14.34-10.18a130.1 130.1 0 0 1 14.6-8.5.2.2 0 1 0-.18-.35Z" fill="#263238"/><path d="M390.36 590.8c2.64-5.82 16.94-30.08 21.6-35.7a.15.15 0 0 0-.03-.18.15.15 0 0 0-.18-.02c-7.96 7.55-20.76 27.58-23.74 34.02-2.97 6.44-6.34 14.45-6.34 21.52 0 10.68 7.07 12.69 9.69 13.2 3.1.57 6.3.06 9.08-1.46a28.3 28.3 0 0 0 8.24-7.74c.1-.15-.1-.35-.23-.2-3.72 4.2-9.84 8.35-15.62 7.59a9.66 9.66 0 0 1-6.6-3.56 12.6 12.6 0 0 1-1.72-8.6 58.16 58.16 0 0 1 5.85-18.87Z" fill="#263238"/><path d="M429.66 633.25c-1.49 1.26-4.54 5.69-9.4 6.64a11 11 0 0 1-10-2.24 13.86 13.86 0 0 1-3.85-9.7c.4-4.53 1.15-9.02 2.23-13.44 0-.2-.2-.3-.26-.09a49.86 49.86 0 0 0-3.22 14.44 14.57 14.57 0 0 0 4.1 10.64 10.91 10.91 0 0 0 11.16 2.32c1.85-.7 7.9-4.56 9.63-8.35.06-.1-.32-.28-.39-.22Zm40.46-14.98a26.88 26.88 0 0 0-4.52 3.82 98.18 98.18 0 0 0-4.36 4.48 60.33 60.33 0 0 0-7.44 10.1c-2.15 3.63-4.14 7.66-7.66 10.17a9.96 9.96 0 0 1-11.68.3 9.84 9.84 0 0 1-3.72-5.41c-.7-2.37-.92-4.84-.67-7.3a.15.15 0 0 0-.3 0 34.3 34.3 0 0 0-.52 6.61c.2 2.01.91 3.94 2.08 5.58a11.16 11.16 0 0 0 10.9 4.08c4.47-.82 7.72-4.17 10.16-7.8 2.68-4.04 4.91-8.33 7.8-12.26 1.5-2.06 2.99-4.15 4.64-6.1 1.66-1.95 3.73-3.85 5.4-5.97.26-.17.11-.4-.11-.3Z" fill="#263238"/><path d="M482.6 627.39a92.23 92.23 0 0 1-17.19-3.57c-.18 0-.43.44-.26.53a40.1 40.1 0 0 0 8.47 2.8c2.93.63 5.95.82 8.94.55.15-.02.23-.3.04-.31Z" fill="#263238"/><path d="m691.7 538.21-87.52-2.9s-16.3-43.2-22.49-81.62c-6.2-38.44 25.28-26.7 58.13 14.45s51.88 70.07 51.88 70.07Z" fill="#1BFF07"/><path d="M374.5 689.37h13.36v-8.73h-13.35v8.73Zm-17.31-.57h13.35v-8.73h-13.35v8.72Zm-17.34-.59h13.36v-8.72h-13.36v8.72Zm-17.32-.57h13.36v-8.73h-13.36v8.73Zm-17.33-.58h13.35v-8.72h-13.35v8.72Zm-17.32-.57h13.35v-8.73h-13.35v8.73Zm-17.34-.59h13.36v-8.72h-13.36v8.73Zm-17.32-.57h13.36v-8.72h-13.36v8.72Zm-17.33-.58h13.35v-8.72h-13.35v8.73Z" fill="#455A64"/><path d="M232.61 694.4h158.53v-10.61l-158.53-4.43v15.03Z" fill="#37474F"/><path d="M77.9 652.54h261.7l-41.62-194.84h-261.7l41.62 194.84Z" fill="#455A64"/><path d="M68.21 652.54h261.7l-41.62-194.84h-261.69l41.61 194.84Z" fill="#37474F"/><path d="M155.64 543.83a19.68 19.68 0 0 0 18.75 16.18 13.47 13.47 0 0 0 13.62-16.18 19.73 19.73 0 0 0-18.75-16.19 13.47 13.47 0 0 0-13.62 16.19Z" fill="#263238"/><path d="M142.23 703.41h128.7v-9.99l-128.7-4.16v14.15Z" fill="#455A64"/><path d="M107.24 703.4h69.1l41.62-109.16h-69.11l-41.61 109.15Z" fill="#455A64"/><path d="M95.85 703.4h69.1l41.64-109.16h-69.1l-41.64 109.15Z" fill="#263238"/><path d="M396.03 706.07h132.7c11.33 0-5.06-32.24-46.39-44.64-41.33-12.4-99.43 32.55-86.31 44.64Z" fill="#37474F"/><path d="M448.11 706.07a80.44 80.44 0 0 0-3.22-10.34 61.97 61.97 0 0 0-4.7-9.6 45.88 45.88 0 0 0-6.44-8.48l-1.86-1.86-2.06-1.73c-1.3-1.27-2.92-2.08-4.35-3.24a31.63 31.63 0 0 1 9.3 5.82 36.2 36.2 0 0 1 7.03 8.56 46.7 46.7 0 0 1 4.48 10.1 42.07 42.07 0 0 1 1.82 10.77Z" fill="#263238"/><path d="M432.38 675.4c-1.86.97-3.63 1.86-5.42 2.92-1.78 1.06-3.59 1.99-5.34 3.03-3.5 2.1-6.97 4.22-10.26 6.6a62.9 62.9 0 0 0-9.3 7.8 27.55 27.55 0 0 0-3.73 4.74 17.52 17.52 0 0 0-2.38 5.58c.12-2.09.66-4.13 1.59-6a28.16 28.16 0 0 1 3.42-5.27c2.72-3.18 5.85-6 9.3-8.37a86.14 86.14 0 0 1 22.1-11.03h.02Z" fill="#263238"/><path d="m645.18 628.86-7.89 99.03h-54.46l-7.9-99.03h70.25Z" fill="#1BFF07"/><path opacity=".1" d="m645.18 628.86-7.89 99.03h-54.46l-7.9-99.03h70.25Z" fill="#000"/><path d="M649.87 619.93h-80.08v14.43h80.08v-14.43Z" fill="#455A64"/><path d="M644.38 619.93h-69.1l4.03-16.22h61.03l4.04 16.22Z" fill="#37474F"/></svg>