<svg viewBox="0 0 130 55" fill="none" xmlns="http://www.w3.org/2000/svg"><rect y="9" width="130" height="39" rx="19.5" fill="#000"/><path d="M21.72 43.5c-3.95 0-6.88-1.33-8.78-4.02-1.86-2.69-2.8-6.45-2.8-11.28 0-4.84.94-8.6 2.8-11.28 1.9-2.7 4.83-4.03 8.78-4.03 3.96 0 6.88 1.34 8.74 4.03 1.9 2.68 2.84 6.44 2.84 11.28 0 4.83-.94 8.6-2.84 11.28-1.86 2.69-4.78 4.03-8.74 4.03Zm0-5.12c1.81 0 3.06-.67 3.74-2 .7-1.35 1.06-3.23 1.06-5.64v-5.13c0-2.37-.36-4.23-1.06-5.56-.68-1.35-1.93-2.03-3.74-2.03-1.8 0-3.06.68-3.77 2.03-.68 1.33-1.02 3.19-1.02 5.56v5.17c0 2.38.34 4.25 1.02 5.6.7 1.33 1.96 2 3.77 2Zm17.55 4.62h-6.28v-29.6h11.45c1.44 0 2.73.22 3.86.67a7.33 7.33 0 0 1 2.84 1.87c.8.82 1.39 1.81 1.78 2.97.4 1.16.6 2.46.6 3.9 0 2.1-.45 3.89-1.36 5.39a6.45 6.45 0 0 1-3.86 2.97l5.81 11.83h-6.95l-4.97-10.99h-2.92v10.99Zm3.64-15.9c1.5 0 2.54-.29 3.1-.85.6-.57.9-1.5.9-2.8v-1.28c0-1.3-.3-2.23-.9-2.8-.56-.56-1.6-.84-3.1-.84h-3.64v8.56h3.64Zm11.52 15.9v-29.6h6.4v24.38h12.73v5.22h-19.13Zm29.6.5c-3.97 0-6.9-1.33-8.79-4.02-1.86-2.69-2.8-6.45-2.8-11.28 0-4.84.94-8.6 2.8-11.28 1.9-2.7 4.82-4.03 8.78-4.03 3.96 0 6.87 1.34 8.74 4.03 1.9 2.68 2.84 6.44 2.84 11.28 0 4.83-.95 8.6-2.84 11.28-1.87 2.69-4.78 4.03-8.74 4.03Zm0-5.12c1.8 0 3.05-.67 3.73-2 .7-1.35 1.06-3.23 1.06-5.64v-5.13c0-2.37-.36-4.23-1.06-5.56-.68-1.35-1.93-2.03-3.74-2.03-1.8 0-3.07.68-3.77 2.03-.68 1.33-1.02 3.19-1.02 5.56v5.17c0 2.38.34 4.25 1.02 5.6.7 1.33 1.96 2 3.77 2Zm16.26 4.62-7.84-29.6h7.08l3.48 15.05 1.74 8.53h.34l1.78-8.53 3.52-15.05h6.74l-7.84 29.6h-9Z" fill="#1BFF07"/></svg>